<svg xmlns="http://www.w3.org/2000/svg" xmlns:xlink="http://www.w3.org/1999/xlink" width="1587" zoomAndPan="magnify" viewBox="0 0 1190.25 1683.749949" height="2245" preserveAspectRatio="xMidYMid meet" version="1.0"><defs><clipPath id="bdc907f7a2"><path d="M 0 0.40625 L 1189.5 0.40625 L 1189.5 1683.09375 L 0 1683.09375 Z M 0 0.40625 " clip-rule="nonzero"/></clipPath><clipPath id="8e40a9f10c"><path d="M 0 0.40625 L 1189.199219 0.40625 L 1189.199219 1682.667969 L 0 1682.667969 Z M 0 0.40625 " clip-rule="nonzero"/></clipPath><clipPath id="c14d32a4ae"><path d="M 601 532 L 858 532 L 858 789 L 601 789 Z M 601 532 " clip-rule="nonzero"/></clipPath><clipPath id="eb2f05c2b8"><path d="M 601.007812 660.441406 L 729.367188 532.082031 L 857.113281 659.824219 L 728.75 788.1875 Z M 601.007812 660.441406 " clip-rule="nonzero"/></clipPath><clipPath id="2b770b9890"><path d="M 0 0 L 256 0 L 256 256.308594 L 0 256.308594 Z M 0 0 " clip-rule="nonzero"/></clipPath><clipPath id="b70aeb4043"><path d="M 0.0078125 128.441406 L 128.367188 0.0820312 L 256.113281 127.824219 L 127.75 256.1875 Z M 0.0078125 128.441406 " clip-rule="nonzero"/></clipPath><clipPath id="1bb6ef79ba"><rect x="0" width="257" y="0" height="257"/></clipPath><clipPath id="c5cc84f83b"><path d="M 332 802 L 589 802 L 589 1059 L 332 1059 Z M 332 802 " clip-rule="nonzero"/></clipPath><clipPath id="454c831fa1"><path d="M 588.492188 930.433594 L 460.132812 1058.792969 L 332.386719 931.046875 L 460.746094 802.6875 Z M 588.492188 930.433594 " clip-rule="nonzero"/></clipPath><clipPath id="58dbcef140"><path d="M 0.191406 0.460938 L 256.589844 0.460938 L 256.589844 256.859375 L 0.191406 256.859375 Z M 0.191406 0.460938 " clip-rule="nonzero"/></clipPath><clipPath id="abb029c791"><path d="M 256.492188 128.433594 L 128.132812 256.792969 L 0.386719 129.046875 L 128.746094 0.6875 Z M 256.492188 128.433594 " clip-rule="nonzero"/></clipPath><clipPath id="408a5b34b6"><rect x="0" width="257" y="0" height="257"/></clipPath><clipPath id="0c84f3dad8"><path d="M 601 801 L 858 801 L 858 1058 L 601 1058 Z M 601 801 " clip-rule="nonzero"/></clipPath><clipPath id="07d59c63b6"><path d="M 729.234375 801.183594 L 857.59375 929.542969 L 729.847656 1057.289062 L 601.488281 928.929688 Z M 729.234375 801.183594 " clip-rule="nonzero"/></clipPath><clipPath id="d0bcff6aeb"><path d="M 0.300781 0.0195312 L 256.699219 0.0195312 L 256.699219 256.417969 L 0.300781 256.417969 Z M 0.300781 0.0195312 " clip-rule="nonzero"/></clipPath><clipPath id="852a6b6c6e"><path d="M 128.234375 0.183594 L 256.59375 128.542969 L 128.847656 256.289062 L 0.488281 127.929688 Z M 128.234375 0.183594 " clip-rule="nonzero"/></clipPath><clipPath id="22d5eb9535"><rect x="0" width="257" y="0" height="257"/></clipPath><clipPath id="ccb4e1989c"><path d="M 330 532 L 587 532 L 587 789 L 330 789 Z M 330 532 " clip-rule="nonzero"/></clipPath><clipPath id="b8f5276a3b"><path d="M 459.242188 788.667969 L 330.882812 660.308594 L 458.628906 532.5625 L 586.988281 660.921875 Z M 459.242188 788.667969 " clip-rule="nonzero"/></clipPath><clipPath id="8b46c292df"><path d="M 0.75 0.390625 L 257 0.390625 L 257 256.789062 L 0.75 256.789062 Z M 0.75 0.390625 " clip-rule="nonzero"/></clipPath><clipPath id="e866af63cd"><path d="M 129.242188 256.667969 L 0.882812 128.308594 L 128.628906 0.5625 L 256.988281 128.921875 Z M 129.242188 256.667969 " clip-rule="nonzero"/></clipPath><clipPath id="ca85370e74"><rect x="0" width="257" y="0" height="257"/></clipPath><clipPath id="a691e860b5"><path d="M 493.585938 695.828125 L 695.90625 695.828125 L 695.90625 895.066406 L 493.585938 895.066406 Z M 493.585938 695.828125 " clip-rule="nonzero"/></clipPath><clipPath id="a9a74f0f1d"><path d="M 0.585938 0.828125 L 202.90625 0.828125 L 202.90625 200.066406 L 0.585938 200.066406 Z M 0.585938 0.828125 " clip-rule="nonzero"/></clipPath><clipPath id="8b8998e2c8"><rect x="0" width="203" y="0" height="201"/></clipPath><clipPath id="e353a9bf0a"><path d="M 452 653 L 737 653 L 737 938 L 452 938 Z M 452 653 " clip-rule="nonzero"/></clipPath><clipPath id="592e1bab72"><path d="M 595.839844 653.472656 L 736.722656 794.355469 L 593.660156 937.417969 L 452.777344 796.535156 Z M 595.839844 653.472656 " clip-rule="nonzero"/></clipPath><clipPath id="43947fc081"><path d="M 0.59375 0.273438 L 284.816406 0.273438 L 284.816406 284.496094 L 0.59375 284.496094 Z M 0.59375 0.273438 " clip-rule="nonzero"/></clipPath><clipPath id="4f229fd9c8"><path d="M 143.839844 0.472656 L 284.722656 141.355469 L 141.660156 284.417969 L 0.777344 143.535156 Z M 143.839844 0.472656 " clip-rule="nonzero"/></clipPath><clipPath id="007ee7d507"><rect x="0" width="285" y="0" height="285"/></clipPath><clipPath id="b696edbbcb"><path d="M 729.058594 532.078125 L 861.542969 532.078125 L 861.542969 654.773438 L 729.058594 654.773438 Z M 729.058594 532.078125 " clip-rule="nonzero"/></clipPath><clipPath id="f7335da2c7"><path d="M 0.0585938 0.078125 L 132.542969 0.078125 L 132.542969 122.773438 L 0.0585938 122.773438 Z M 0.0585938 0.078125 " clip-rule="nonzero"/></clipPath><clipPath id="e0550cd300"><rect x="0" width="133" y="0" height="123"/></clipPath><clipPath id="f45b43d01a"><path d="M 330.878906 528.136719 L 453.570312 528.136719 L 453.570312 660.621094 L 330.878906 660.621094 Z M 330.878906 528.136719 " clip-rule="nonzero"/></clipPath><clipPath id="f475aeaf6a"><path d="M 0.878906 0.136719 L 123.570312 0.136719 L 123.570312 132.621094 L 0.878906 132.621094 Z M 0.878906 0.136719 " clip-rule="nonzero"/></clipPath><clipPath id="dbf910aa29"><rect x="0" width="124" y="0" height="133"/></clipPath><clipPath id="2b449c45c5"><path d="M 734.90625 929.238281 L 857.597656 929.238281 L 857.597656 1061.722656 L 734.90625 1061.722656 Z M 734.90625 929.238281 " clip-rule="nonzero"/></clipPath><clipPath id="9d85612d0b"><path d="M 0.90625 0.238281 L 123.597656 0.238281 L 123.597656 132.722656 L 0.90625 132.722656 Z M 0.90625 0.238281 " clip-rule="nonzero"/></clipPath><clipPath id="025165950e"><rect x="0" width="124" y="0" height="133"/></clipPath><clipPath id="126af9478c"><path d="M 327.957031 936.105469 L 460.441406 936.105469 L 460.441406 1058.800781 L 327.957031 1058.800781 Z M 327.957031 936.105469 " clip-rule="nonzero"/></clipPath><clipPath id="dbddf37c31"><path d="M 1 0.105469 L 133.441406 0.105469 L 133.441406 122.800781 L 1 122.800781 Z M 1 0.105469 " clip-rule="nonzero"/></clipPath><clipPath id="52a4aef860"><rect x="0" width="134" y="0" height="123"/></clipPath><clipPath id="061ca98b8c"><path d="M 503.839844 704.167969 L 684.628906 704.167969 L 684.628906 885.695312 L 503.839844 885.695312 Z M 503.839844 704.167969 " clip-rule="nonzero"/></clipPath><clipPath id="8605952235"><path d="M 0.839844 0.167969 L 181.628906 0.167969 L 181.628906 181.695312 L 0.839844 181.695312 Z M 0.839844 0.167969 " clip-rule="nonzero"/></clipPath><clipPath id="8f5957a2b1"><rect x="0" width="182" y="0" height="182"/></clipPath><clipPath id="e31b929655"><path d="M 466 666 L 723 666 L 723 924 L 466 924 Z M 466 666 " clip-rule="nonzero"/></clipPath><clipPath id="d6d15ccbf7"><path d="M 722.332031 794.664062 L 593.972656 923.027344 L 466.136719 795.191406 L 594.496094 666.828125 Z M 722.332031 794.664062 " clip-rule="nonzero"/></clipPath><clipPath id="487d3db2d5"><path d="M 0.0273438 0.707031 L 256.425781 0.707031 L 256.425781 257 L 0.0273438 257 Z M 0.0273438 0.707031 " clip-rule="nonzero"/></clipPath><clipPath id="615e1e8a39"><path d="M 256.332031 128.664062 L 127.972656 257.027344 L 0.136719 129.191406 L 128.496094 0.828125 Z M 256.332031 128.664062 " clip-rule="nonzero"/></clipPath><clipPath id="0658f890e8"><rect x="0" width="257" y="0" height="258"/></clipPath><clipPath id="a461e4c13b"><path d="M 858.703125 1062.988281 L 1039.492188 1062.988281 L 1039.492188 1244.519531 L 858.703125 1244.519531 Z M 858.703125 1062.988281 " clip-rule="nonzero"/></clipPath><clipPath id="9c31ade833"><path d="M 0.703125 0.988281 L 181.492188 0.988281 L 181.492188 182.519531 L 0.703125 182.519531 Z M 0.703125 0.988281 " clip-rule="nonzero"/></clipPath><clipPath id="3ce00930d8"><rect x="0" width="182" y="0" height="183"/></clipPath><clipPath id="523a978d16"><path d="M 824 1025 L 1081 1025 L 1081 1282 L 824 1282 Z M 824 1025 " clip-rule="nonzero"/></clipPath><clipPath id="558459388d"><path d="M 1080.644531 1153.488281 L 952.285156 1281.847656 L 824.449219 1154.011719 L 952.808594 1025.652344 Z M 1080.644531 1153.488281 " clip-rule="nonzero"/></clipPath><clipPath id="b0cf9d64be"><path d="M 0.359375 0.519531 L 256.757812 0.519531 L 256.757812 256.917969 L 0.359375 256.917969 Z M 0.359375 0.519531 " clip-rule="nonzero"/></clipPath><clipPath id="51755b62f2"><path d="M 256.644531 128.488281 L 128.285156 256.847656 L 0.449219 129.011719 L 128.808594 0.652344 Z M 256.644531 128.488281 " clip-rule="nonzero"/></clipPath><clipPath id="6aa1e7e6b6"><rect x="0" width="257" y="0" height="257"/></clipPath><clipPath id="3325b93d77"><path d="M 862.808594 350.1875 L 1044.339844 350.1875 L 1044.339844 530.972656 L 862.808594 530.972656 Z M 862.808594 350.1875 " clip-rule="nonzero"/></clipPath><clipPath id="96648e59f1"><path d="M 0.808594 0.1875 L 182.339844 0.1875 L 182.339844 180.972656 L 0.808594 180.972656 Z M 0.808594 0.1875 " clip-rule="nonzero"/></clipPath><clipPath id="b7ca647d52"><rect x="0" width="183" y="0" height="181"/></clipPath><clipPath id="3313c394dc"><path d="M 825 309 L 1082 309 L 1082 566 L 825 566 Z M 825 309 " clip-rule="nonzero"/></clipPath><clipPath id="f094f1ebfe"><path d="M 953.308594 309.03125 L 1081.667969 437.390625 L 953.832031 565.226562 L 825.472656 436.867188 Z M 953.308594 309.03125 " clip-rule="nonzero"/></clipPath><clipPath id="82b99e3231"><path d="M 0.320312 0 L 256.71875 0 L 256.71875 256.25 L 0.320312 256.25 Z M 0.320312 0 " clip-rule="nonzero"/></clipPath><clipPath id="452aae77e0"><path d="M 128.308594 0.03125 L 256.667969 128.390625 L 128.832031 256.226562 L 0.472656 127.867188 Z M 128.308594 0.03125 " clip-rule="nonzero"/></clipPath><clipPath id="37ff6c185d"><rect x="0" width="257" y="0" height="257"/></clipPath><clipPath id="a8d44daac8"><path d="M 145.15625 1059.90625 L 326.6875 1059.90625 L 326.6875 1240.695312 L 145.15625 1240.695312 Z M 145.15625 1059.90625 " clip-rule="nonzero"/></clipPath><clipPath id="2bf8adb051"><path d="M 0.15625 0.90625 L 181.6875 0.90625 L 181.6875 181.695312 L 0.15625 181.695312 Z M 0.15625 0.90625 " clip-rule="nonzero"/></clipPath><clipPath id="1bf1bf0d62"><rect x="0" width="182" y="0" height="182"/></clipPath><clipPath id="5325781725"><path d="M 107 1025 L 365 1025 L 365 1282 L 107 1282 Z M 107 1025 " clip-rule="nonzero"/></clipPath><clipPath id="f79990298f"><path d="M 236.1875 1281.847656 L 107.828125 1153.488281 L 235.664062 1025.652344 L 364.023438 1154.011719 Z M 236.1875 1281.847656 " clip-rule="nonzero"/></clipPath><clipPath id="cae85e8bd2"><path d="M 0.691406 0.519531 L 257.089844 0.519531 L 257.089844 256.917969 L 0.691406 256.917969 Z M 0.691406 0.519531 " clip-rule="nonzero"/></clipPath><clipPath id="9dc83690c7"><path d="M 129.1875 256.847656 L 0.828125 128.488281 L 128.664062 0.652344 L 257.023438 129.011719 Z M 129.1875 256.847656 " clip-rule="nonzero"/></clipPath><clipPath id="c54ed36407"><rect x="0" width="258" y="0" height="257"/></clipPath><clipPath id="cbd9b9c930"><path d="M 148.984375 345.339844 L 329.769531 345.339844 L 329.769531 526.867188 L 148.984375 526.867188 Z M 148.984375 345.339844 " clip-rule="nonzero"/></clipPath><clipPath id="4088a631f2"><path d="M 0.984375 0.339844 L 181.769531 0.339844 L 181.769531 181.867188 L 0.984375 181.867188 Z M 0.984375 0.339844 " clip-rule="nonzero"/></clipPath><clipPath id="6ad85d163f"><rect x="0" width="182" y="0" height="182"/></clipPath><clipPath id="ff09eeac68"><path d="M 107 308 L 365 308 L 365 565 L 107 565 Z M 107 308 " clip-rule="nonzero"/></clipPath><clipPath id="b5c096e3b5"><path d="M 107.828125 436.367188 L 236.1875 308.007812 L 364.023438 435.84375 L 235.664062 564.207031 Z M 107.828125 436.367188 " clip-rule="nonzero"/></clipPath><clipPath id="d8da788f6e"><path d="M 0.691406 0 L 257 0 L 257 256.289062 L 0.691406 256.289062 Z M 0.691406 0 " clip-rule="nonzero"/></clipPath><clipPath id="9e66659fbd"><path d="M 0.828125 128.367188 L 129.1875 0.0078125 L 257.023438 127.84375 L 128.664062 256.207031 Z M 0.828125 128.367188 " clip-rule="nonzero"/></clipPath><clipPath id="cf29afeedc"><rect x="0" width="258" y="0" height="257"/></clipPath><clipPath id="f071b583e4"><path d="M 503.984375 705.046875 L 685.515625 705.046875 L 685.515625 885.835938 L 503.984375 885.835938 Z M 503.984375 705.046875 " clip-rule="nonzero"/></clipPath><clipPath id="ecb990e948"><path d="M 0.984375 0.046875 L 182.515625 0.046875 L 182.515625 180.835938 L 0.984375 180.835938 Z M 0.984375 0.046875 " clip-rule="nonzero"/></clipPath><clipPath id="f22dec512e"><rect x="0" width="183" y="0" height="181"/></clipPath><clipPath id="b7322d5881"><path d="M 466 667 L 723 667 L 723 924 L 466 924 Z M 466 667 " clip-rule="nonzero"/></clipPath><clipPath id="c18a3a2605"><path d="M 594.484375 667.34375 L 722.84375 795.703125 L 595.007812 923.539062 L 466.648438 795.179688 Z M 594.484375 667.34375 " clip-rule="nonzero"/></clipPath><clipPath id="03218529f2"><path d="M 0.507812 0.183594 L 256.90625 0.183594 L 256.90625 256.582031 L 0.507812 256.582031 Z M 0.507812 0.183594 " clip-rule="nonzero"/></clipPath><clipPath id="7d5aeb2c1c"><path d="M 128.484375 0.34375 L 256.84375 128.703125 L 129.007812 256.539062 L 0.648438 128.179688 Z M 128.484375 0.34375 " clip-rule="nonzero"/></clipPath><clipPath id="6f044fed65"><rect x="0" width="257" y="0" height="257"/></clipPath><clipPath id="c5f7d480d2"><path d="M 143 568 L 328 568 L 328 753 L 143 753 Z M 143 568 " clip-rule="nonzero"/></clipPath><clipPath id="29a63ceb8b"><path d="M 236.445312 568.632812 L 327.957031 660.144531 L 235.480469 752.625 L 143.964844 661.109375 Z M 236.445312 568.632812 " clip-rule="nonzero"/></clipPath><clipPath id="8b64c8f983"><path d="M 0.910156 0.605469 L 185 0.605469 L 185 184.8125 L 0.910156 184.8125 Z M 0.910156 0.605469 " clip-rule="nonzero"/></clipPath><clipPath id="2b7069fe8e"><path d="M 93.445312 0.632812 L 184.957031 92.144531 L 92.480469 184.625 L 0.964844 93.109375 Z M 93.445312 0.632812 " clip-rule="nonzero"/></clipPath><clipPath id="ddc424e5c7"><rect x="0" width="185" y="0" height="185"/></clipPath><clipPath id="02025be5cb"><path d="M 143 841 L 328 841 L 328 1026 L 143 1026 Z M 143 841 " clip-rule="nonzero"/></clipPath><clipPath id="37091af39f"><path d="M 236.410156 841.554688 L 327.921875 933.066406 L 235.441406 1025.546875 L 143.929688 934.03125 Z M 236.410156 841.554688 " clip-rule="nonzero"/></clipPath><clipPath id="0fa69bf9cf"><path d="M 0.910156 0.316406 L 185 0.316406 L 185 184.757812 L 0.910156 184.757812 Z M 0.910156 0.316406 " clip-rule="nonzero"/></clipPath><clipPath id="401cdd7c75"><path d="M 93.410156 0.554688 L 184.921875 92.066406 L 92.441406 184.546875 L 0.929688 93.03125 Z M 93.410156 0.554688 " clip-rule="nonzero"/></clipPath><clipPath id="037ceff32f"><rect x="0" width="185" y="0" height="185"/></clipPath><clipPath id="2179b9cb7d"><path d="M 143.925781 660.105469 L 327.953125 660.105469 L 327.953125 933.546875 L 143.925781 933.546875 Z M 143.925781 660.105469 " clip-rule="nonzero"/></clipPath><clipPath id="e633fc31fa"><path d="M 0.925781 0.105469 L 184.953125 0.105469 L 184.953125 273.546875 L 0.925781 273.546875 Z M 0.925781 0.105469 " clip-rule="nonzero"/></clipPath><clipPath id="501378c914"><rect x="0" width="185" y="0" height="274"/></clipPath><clipPath id="06c9e57048"><path d="M 861 566 L 1046 566 L 1046 751 L 861 751 Z M 861 566 " clip-rule="nonzero"/></clipPath><clipPath id="22e6e807d7"><path d="M 954.074219 566.988281 L 1045.585938 658.5 L 953.109375 750.980469 L 861.59375 659.464844 Z M 954.074219 566.988281 " clip-rule="nonzero"/></clipPath><clipPath id="7766799919"><path d="M 0.535156 0.929688 L 184.742188 0.929688 L 184.742188 185 L 0.535156 185 Z M 0.535156 0.929688 " clip-rule="nonzero"/></clipPath><clipPath id="41818a976a"><path d="M 93.074219 0.988281 L 184.585938 92.5 L 92.109375 184.980469 L 0.59375 93.464844 Z M 93.074219 0.988281 " clip-rule="nonzero"/></clipPath><clipPath id="964782ff37"><rect x="0" width="185" y="0" height="185"/></clipPath><clipPath id="a8ad04394b"><path d="M 861 839 L 1046 839 L 1046 1024 L 861 1024 Z M 861 839 " clip-rule="nonzero"/></clipPath><clipPath id="0919909180"><path d="M 954.035156 839.910156 L 1045.550781 931.421875 L 953.070312 1023.902344 L 861.558594 932.386719 Z M 954.035156 839.910156 " clip-rule="nonzero"/></clipPath><clipPath id="2049879b8f"><path d="M 0.535156 0.875 L 184.742188 0.875 L 184.742188 185 L 0.535156 185 Z M 0.535156 0.875 " clip-rule="nonzero"/></clipPath><clipPath id="4a77c3d0b3"><path d="M 93.035156 0.910156 L 184.550781 92.421875 L 92.070312 184.902344 L 0.558594 93.386719 Z M 93.035156 0.910156 " clip-rule="nonzero"/></clipPath><clipPath id="56a5429720"><rect x="0" width="185" y="0" height="185"/></clipPath><clipPath id="0396e53836"><path d="M 861.554688 658.460938 L 1045.582031 658.460938 L 1045.582031 931.902344 L 861.554688 931.902344 Z M 861.554688 658.460938 " clip-rule="nonzero"/></clipPath><clipPath id="60496f3830"><path d="M 0.554688 0.460938 L 184.582031 0.460938 L 184.582031 273.902344 L 0.554688 273.902344 Z M 0.554688 0.460938 " clip-rule="nonzero"/></clipPath><clipPath id="d9b28a478f"><rect x="0" width="185" y="0" height="274"/></clipPath><clipPath id="bc6daa8dd1"><path d="M 367 1061 L 552 1061 L 552 1246 L 367 1246 Z M 367 1061 " clip-rule="nonzero"/></clipPath><clipPath id="fe4d2a411e"><path d="M 367.542969 1153.25 L 459.054688 1061.738281 L 551.53125 1154.214844 L 460.019531 1245.726562 Z M 367.542969 1153.25 " clip-rule="nonzero"/></clipPath><clipPath id="7d37cff5ae"><path d="M 0.449219 0.738281 L 184.652344 0.738281 L 184.652344 184.941406 L 0.449219 184.941406 Z M 0.449219 0.738281 " clip-rule="nonzero"/></clipPath><clipPath id="34b7832f16"><path d="M 0.542969 92.25 L 92.054688 0.738281 L 184.53125 93.214844 L 93.019531 184.726562 Z M 0.542969 92.25 " clip-rule="nonzero"/></clipPath><clipPath id="319e43701d"><rect x="0" width="185" y="0" height="185"/></clipPath><clipPath id="7a4aca9ca7"><path d="M 640 1061 L 825 1061 L 825 1246 L 640 1246 Z M 640 1061 " clip-rule="nonzero"/></clipPath><clipPath id="f7800a008f"><path d="M 640.460938 1153.285156 L 731.976562 1061.773438 L 824.453125 1154.25 L 732.941406 1245.765625 Z M 640.460938 1153.285156 " clip-rule="nonzero"/></clipPath><clipPath id="7d64fd6297"><path d="M 0.394531 0.738281 L 184.601562 0.738281 L 184.601562 184.941406 L 0.394531 184.941406 Z M 0.394531 0.738281 " clip-rule="nonzero"/></clipPath><clipPath id="217325b2db"><path d="M 0.460938 92.285156 L 91.976562 0.773438 L 184.453125 93.25 L 92.941406 184.765625 Z M 0.460938 92.285156 " clip-rule="nonzero"/></clipPath><clipPath id="d34572f880"><rect x="0" width="185" y="0" height="185"/></clipPath><clipPath id="b9daf25aa0"><path d="M 459.011719 1061.742188 L 732.453125 1061.742188 L 732.453125 1245.769531 L 459.011719 1245.769531 Z M 459.011719 1061.742188 " clip-rule="nonzero"/></clipPath><clipPath id="8202fc6b20"><path d="M 0.0117188 0.742188 L 273.453125 0.742188 L 273.453125 184.769531 L 0.0117188 184.769531 Z M 0.0117188 0.742188 " clip-rule="nonzero"/></clipPath><clipPath id="8b4159c39b"><rect x="0" width="274" y="0" height="185"/></clipPath><clipPath id="d773824d84"><path d="M 368 345 L 553 345 L 553 530 L 368 530 Z M 368 345 " clip-rule="nonzero"/></clipPath><clipPath id="48d3850f42"><path d="M 368.5625 436.625 L 460.074219 345.113281 L 552.554688 437.589844 L 461.042969 529.101562 Z M 368.5625 436.625 " clip-rule="nonzero"/></clipPath><clipPath id="0166fc50d1"><path d="M 0.40625 0.0664062 L 184.613281 0.0664062 L 184.613281 184.273438 L 0.40625 184.273438 Z M 0.40625 0.0664062 " clip-rule="nonzero"/></clipPath><clipPath id="399918d8ed"><path d="M 0.5625 91.625 L 92.074219 0.113281 L 184.554688 92.589844 L 93.042969 184.101562 Z M 0.5625 91.625 " clip-rule="nonzero"/></clipPath><clipPath id="69cea4d0cc"><rect x="0" width="185" y="0" height="185"/></clipPath><clipPath id="11e9a4a922"><path d="M 641 345 L 826 345 L 826 530 L 641 530 Z M 641 345 " clip-rule="nonzero"/></clipPath><clipPath id="1b7f2318f3"><path d="M 641.484375 436.660156 L 732.996094 345.148438 L 825.476562 437.628906 L 733.960938 529.140625 Z M 641.484375 436.660156 " clip-rule="nonzero"/></clipPath><clipPath id="8f9a21e67d"><path d="M 0.355469 0.0664062 L 184.558594 0.0664062 L 184.558594 184.273438 L 0.355469 184.273438 Z M 0.355469 0.0664062 " clip-rule="nonzero"/></clipPath><clipPath id="5f36d0e767"><path d="M 0.484375 91.660156 L 91.996094 0.148438 L 184.476562 92.628906 L 92.960938 184.140625 Z M 0.484375 91.660156 " clip-rule="nonzero"/></clipPath><clipPath id="02e50e03de"><rect x="0" width="185" y="0" height="185"/></clipPath><clipPath id="d039698e87"><path d="M 460.035156 345.117188 L 733.476562 345.117188 L 733.476562 529.144531 L 460.035156 529.144531 Z M 460.035156 345.117188 " clip-rule="nonzero"/></clipPath><clipPath id="73d361b637"><path d="M 0.0351562 0.117188 L 273.476562 0.117188 L 273.476562 184.144531 L 0.0351562 184.144531 Z M 0.0351562 0.117188 " clip-rule="nonzero"/></clipPath><clipPath id="178d504b83"><rect x="0" width="274" y="0" height="185"/></clipPath><clipPath id="f280659f4c"><path d="M 343.371094 677.292969 L 454.832031 677.292969 L 454.832031 901.082031 L 343.371094 901.082031 Z M 343.371094 677.292969 " clip-rule="nonzero"/></clipPath><clipPath id="6959956459"><path d="M 454.832031 789.15625 L 343.371094 901.015625 L 343.371094 677.292969 Z M 454.832031 789.15625 " clip-rule="nonzero"/></clipPath><clipPath id="6310df26ad"><path d="M 0.371094 0.292969 L 111.832031 0.292969 L 111.832031 224.039062 L 0.371094 224.039062 Z M 0.371094 0.292969 " clip-rule="nonzero"/></clipPath><clipPath id="1cf270a7be"><path d="M 111.832031 112.15625 L 0.371094 224.015625 L 0.371094 0.292969 Z M 111.832031 112.15625 " clip-rule="nonzero"/></clipPath><clipPath id="3b4755d9a7"><rect x="0" width="112" y="0" height="225"/></clipPath><clipPath id="8972aef11f"><path d="M 482.378906 940.414062 L 706.167969 940.414062 L 706.167969 1051.871094 L 482.378906 1051.871094 Z M 482.378906 940.414062 " clip-rule="nonzero"/></clipPath><clipPath id="4686b88ef6"><path d="M 594.238281 940.414062 L 706.101562 1051.871094 L 482.378906 1051.871094 Z M 594.238281 940.414062 " clip-rule="nonzero"/></clipPath><clipPath id="a7394e3217"><path d="M 0.378906 0.414062 L 224.113281 0.414062 L 224.113281 111.871094 L 0.378906 111.871094 Z M 0.378906 0.414062 " clip-rule="nonzero"/></clipPath><clipPath id="40213c054b"><path d="M 112.238281 0.414062 L 224.101562 111.871094 L 0.378906 111.871094 Z M 112.238281 0.414062 " clip-rule="nonzero"/></clipPath><clipPath id="7182d0302d"><rect x="0" width="225" y="0" height="112"/></clipPath><clipPath id="171b61fbcb"><path d="M 736.722656 685.148438 L 848.179688 685.148438 L 848.179688 908.9375 L 736.722656 908.9375 Z M 736.722656 685.148438 " clip-rule="nonzero"/></clipPath><clipPath id="496017a62d"><path d="M 736.722656 797.078125 L 848.179688 685.21875 L 848.179688 908.9375 Z M 736.722656 797.078125 " clip-rule="nonzero"/></clipPath><clipPath id="fc0057ec22"><path d="M 0.722656 0.171875 L 112.179688 0.171875 L 112.179688 223.9375 L 0.722656 223.9375 Z M 0.722656 0.171875 " clip-rule="nonzero"/></clipPath><clipPath id="b6049fe415"><path d="M 0.722656 112.078125 L 112.179688 0.21875 L 112.179688 223.9375 Z M 0.722656 112.078125 " clip-rule="nonzero"/></clipPath><clipPath id="4613845171"><rect x="0" width="113" y="0" height="224"/></clipPath><clipPath id="b5a2921bf4"><path d="M 479.375 539.003906 L 703.167969 539.003906 L 703.167969 650.464844 L 479.375 650.464844 Z M 479.375 539.003906 " clip-rule="nonzero"/></clipPath><clipPath id="86273004bd"><path d="M 591.304688 650.464844 L 479.445312 539.003906 L 703.167969 539.003906 Z M 591.304688 650.464844 " clip-rule="nonzero"/></clipPath><clipPath id="d8796bb941"><path d="M 0.375 0.00390625 L 224.167969 0.00390625 L 224.167969 111.464844 L 0.375 111.464844 Z M 0.375 0.00390625 " clip-rule="nonzero"/></clipPath><clipPath id="d4b616281d"><path d="M 112.304688 111.464844 L 0.445312 0.00390625 L 224.167969 0.00390625 Z M 112.304688 111.464844 " clip-rule="nonzero"/></clipPath><clipPath id="f7be4fd6c5"><rect x="0" width="225" y="0" height="112"/></clipPath><clipPath id="023bbe4969"><path d="M 863 534 L 949 534 L 949 652 L 863 652 Z M 863 534 " clip-rule="nonzero"/></clipPath><clipPath id="5e30895b5f"><path d="M 905.296875 669.785156 L 822.191406 633.695312 L 865.1875 534.683594 L 948.292969 570.773438 Z M 905.296875 669.785156 " clip-rule="nonzero"/></clipPath><clipPath id="38693d4d23"><path d="M 863.742188 651.738281 L 865.183594 534.691406 L 948.289062 570.78125 Z M 863.742188 651.738281 " clip-rule="nonzero"/></clipPath><clipPath id="9ee8e5e36d"><path d="M 0.695312 0.546875 L 85.363281 0.546875 L 85.363281 117.835938 L 0.695312 117.835938 Z M 0.695312 0.546875 " clip-rule="nonzero"/></clipPath><clipPath id="8c704438a7"><path d="M 42.296875 135.785156 L -40.808594 99.695312 L 2.1875 0.683594 L 85.292969 36.773438 Z M 42.296875 135.785156 " clip-rule="nonzero"/></clipPath><clipPath id="83f49a5f1c"><path d="M 0.742188 117.738281 L 2.183594 0.691406 L 85.289062 36.78125 Z M 0.742188 117.738281 " clip-rule="nonzero"/></clipPath><clipPath id="0d16aff29d"><rect x="0" width="86" y="0" height="118"/></clipPath><clipPath id="4ba701c869"><path d="M 864 531 L 948 531 L 948 572 L 864 572 Z M 864 531 " clip-rule="nonzero"/></clipPath><clipPath id="8f72539811"><path d="M 874.089844 513.839844 L 957.15625 550.054688 L 947.996094 571.070312 L 864.929688 534.851562 Z M 874.089844 513.839844 " clip-rule="nonzero"/></clipPath><clipPath id="2aaeb571ff"><path d="M 915.617188 531.945312 L 947.980469 571.0625 L 864.929688 534.851562 Z M 915.617188 531.945312 " clip-rule="nonzero"/></clipPath><clipPath id="14c0867683"><path d="M 0.894531 0.910156 L 84 0.910156 L 84 40.246094 L 0.894531 40.246094 Z M 0.894531 0.910156 " clip-rule="nonzero"/></clipPath><clipPath id="0ca1d9b68c"><path d="M 10.089844 -17.160156 L 93.15625 19.054688 L 83.996094 40.070312 L 0.929688 3.851562 Z M 10.089844 -17.160156 " clip-rule="nonzero"/></clipPath><clipPath id="d9960fcae9"><path d="M 51.617188 0.945312 L 83.980469 40.0625 L 0.929688 3.851562 Z M 51.617188 0.945312 " clip-rule="nonzero"/></clipPath><clipPath id="a131862ddf"><rect x="0" width="84" y="0" height="41"/></clipPath><clipPath id="66de6d9223"><path d="M 740 442 L 859 442 L 859 528 L 740 528 Z M 740 442 " clip-rule="nonzero"/></clipPath><clipPath id="450dc98eaa"><path d="M 759.117188 568.625 L 722.851562 485.597656 L 821.769531 442.390625 L 858.035156 525.417969 Z M 759.117188 568.625 " clip-rule="nonzero"/></clipPath><clipPath id="9fd8c6cbde"><path d="M 740.984375 527.113281 L 821.761719 442.394531 L 858.027344 525.421875 Z M 740.984375 527.113281 " clip-rule="nonzero"/></clipPath><clipPath id="b9c41d6aa3"><path d="M 0.894531 0.207031 L 118.179688 0.207031 L 118.179688 85.113281 L 0.894531 85.113281 Z M 0.894531 0.207031 " clip-rule="nonzero"/></clipPath><clipPath id="667c3bb832"><path d="M 19.117188 126.625 L -17.148438 43.597656 L 81.769531 0.390625 L 118.035156 83.417969 Z M 19.117188 126.625 " clip-rule="nonzero"/></clipPath><clipPath id="5eb8f0e610"><path d="M 0.984375 85.113281 L 81.761719 0.394531 L 118.027344 83.421875 Z M 0.984375 85.113281 " clip-rule="nonzero"/></clipPath><clipPath id="3ec1236986"><rect x="0" width="119" y="0" height="86"/></clipPath><clipPath id="480347ac8f"><path d="M 821 442 L 861 442 L 861 526 L 821 526 Z M 821 442 " clip-rule="nonzero"/></clipPath><clipPath id="8c8aa19feb"><path d="M 842.488281 433.191406 L 878.636719 516.289062 L 857.613281 525.433594 L 821.464844 442.335938 Z M 842.488281 433.191406 " clip-rule="nonzero"/></clipPath><clipPath id="50c74b6073"><path d="M 860.558594 474.730469 L 857.609375 525.417969 L 821.464844 442.335938 Z M 860.558594 474.730469 " clip-rule="nonzero"/></clipPath><clipPath id="fc3ea765cc"><path d="M 0.242188 0.207031 L 39.578125 0.207031 L 39.578125 83.433594 L 0.242188 83.433594 Z M 0.242188 0.207031 " clip-rule="nonzero"/></clipPath><clipPath id="93b062e8b3"><path d="M 21.488281 -8.808594 L 57.636719 74.289062 L 36.613281 83.433594 L 0.464844 0.335938 Z M 21.488281 -8.808594 " clip-rule="nonzero"/></clipPath><clipPath id="da870c671d"><path d="M 39.558594 32.730469 L 36.609375 83.417969 L 0.464844 0.335938 Z M 39.558594 32.730469 " clip-rule="nonzero"/></clipPath><clipPath id="e5ded3a48c"><rect x="0" width="40" y="0" height="84"/></clipPath><clipPath id="dad32a78e6"><path d="M 961 536 L 1046 536 L 1046 654 L 961 654 Z M 961 536 " clip-rule="nonzero"/></clipPath><clipPath id="5935e83359"><path d="M 1087.21875 635.507812 L 1003.851562 670.988281 L 961.585938 571.664062 L 1044.949219 536.1875 Z M 1087.21875 635.507812 " clip-rule="nonzero"/></clipPath><clipPath id="070a2e959f"><path d="M 1045.535156 653.25 L 961.585938 571.671875 L 1044.953125 536.191406 Z M 1045.535156 653.25 " clip-rule="nonzero"/></clipPath><clipPath id="70317c5e8b"><path d="M 0.554688 0 L 84.742188 0 L 84.742188 117.273438 L 0.554688 117.273438 Z M 0.554688 0 " clip-rule="nonzero"/></clipPath><clipPath id="271fe5d972"><path d="M 126.21875 99.507812 L 42.851562 134.988281 L 0.585938 35.664062 L 83.949219 0.1875 Z M 126.21875 99.507812 " clip-rule="nonzero"/></clipPath><clipPath id="bec68e3ae0"><path d="M 84.535156 117.25 L 0.585938 35.671875 L 83.953125 0.191406 Z M 84.535156 117.25 " clip-rule="nonzero"/></clipPath><clipPath id="4e148b7953"><rect x="0" width="85" y="0" height="118"/></clipPath><clipPath id="015b433fc6"><path d="M 961 533 L 1045 533 L 1045 572 L 961 572 Z M 961 533 " clip-rule="nonzero"/></clipPath><clipPath id="6f44a961f9"><path d="M 952.582031 550.859375 L 1036.015625 515.5 L 1044.960938 536.605469 L 961.527344 571.964844 Z M 952.582031 550.859375 " clip-rule="nonzero"/></clipPath><clipPath id="dbb9784ad7"><path d="M 994.292969 533.183594 L 1044.945312 536.613281 L 961.527344 571.964844 Z M 994.292969 533.183594 " clip-rule="nonzero"/></clipPath><clipPath id="a081007a49"><path d="M 0.3125 0.109375 L 84 0.109375 L 84 39 L 0.3125 39 Z M 0.3125 0.109375 " clip-rule="nonzero"/></clipPath><clipPath id="7d1c9ffb34"><path d="M -8.417969 17.859375 L 75.015625 -17.5 L 83.960938 3.605469 L 0.527344 38.964844 Z M -8.417969 17.859375 " clip-rule="nonzero"/></clipPath><clipPath id="46c1c69aa0"><path d="M 33.292969 0.183594 L 83.945312 3.613281 L 0.527344 38.964844 Z M 33.292969 0.183594 " clip-rule="nonzero"/></clipPath><clipPath id="3ab0d19512"><rect x="0" width="84" y="0" height="39"/></clipPath><clipPath id="2794ed6772"><path d="M 738 346 L 856 346 L 856 432 L 738 432 Z M 738 346 " clip-rule="nonzero"/></clipPath><clipPath id="0ddfba0d53"><path d="M 719.902344 387.847656 L 756.632812 305.027344 L 855.304688 348.785156 L 818.578125 431.609375 Z M 719.902344 387.847656 " clip-rule="nonzero"/></clipPath><clipPath id="b40405407a"><path d="M 738.265625 346.4375 L 855.300781 348.78125 L 818.570312 431.605469 Z M 738.265625 346.4375 " clip-rule="nonzero"/></clipPath><clipPath id="18b85af5d1"><path d="M 0.253906 0.265625 L 117.300781 0.265625 L 117.300781 85.652344 L 0.253906 85.652344 Z M 0.253906 0.265625 " clip-rule="nonzero"/></clipPath><clipPath id="346bb0a4ab"><path d="M -18.097656 41.847656 L 18.632812 -40.972656 L 117.304688 2.785156 L 80.578125 85.609375 Z M -18.097656 41.847656 " clip-rule="nonzero"/></clipPath><clipPath id="d58808e174"><path d="M 0.265625 0.4375 L 117.300781 2.78125 L 80.570312 85.605469 Z M 0.265625 0.4375 " clip-rule="nonzero"/></clipPath><clipPath id="48f138ed5f"><rect x="0" width="118" y="0" height="86"/></clipPath><clipPath id="804a8b5937"><path d="M 818 348 L 858 348 L 858 432 L 818 432 Z M 818 348 " clip-rule="nonzero"/></clipPath><clipPath id="4f2509d3aa"><path d="M 876.082031 357.847656 L 839.222656 440.632812 L 818.28125 431.308594 L 855.140625 348.523438 Z M 876.082031 357.847656 " clip-rule="nonzero"/></clipPath><clipPath id="2322118766"><path d="M 857.65625 399.230469 L 818.289062 431.292969 L 855.140625 348.523438 Z M 857.65625 399.230469 " clip-rule="nonzero"/></clipPath><clipPath id="6668483ffb"><path d="M 0.125 0.425781 L 39.699219 0.425781 L 39.699219 83.414062 L 0.125 83.414062 Z M 0.125 0.425781 " clip-rule="nonzero"/></clipPath><clipPath id="a603b70a07"><path d="M 58.082031 9.847656 L 21.222656 92.632812 L 0.28125 83.308594 L 37.140625 0.523438 Z M 58.082031 9.847656 " clip-rule="nonzero"/></clipPath><clipPath id="792a88b10d"><path d="M 39.65625 51.230469 L 0.289062 83.292969 L 37.140625 0.523438 Z M 39.65625 51.230469 " clip-rule="nonzero"/></clipPath><clipPath id="553f384333"><rect x="0" width="40" y="0" height="84"/></clipPath><clipPath id="c3809f886b"><path d="M 334 442 L 452 442 L 452 527 L 334 527 Z M 334 442 " clip-rule="nonzero"/></clipPath><clipPath id="5fbf724d97"><path d="M 469.332031 485.179688 L 433.242188 568.285156 L 334.234375 525.289062 L 370.320312 442.183594 Z M 469.332031 485.179688 " clip-rule="nonzero"/></clipPath><clipPath id="303043e170"><path d="M 451.289062 526.730469 L 334.238281 525.289062 L 370.328125 442.1875 Z M 451.289062 526.730469 " clip-rule="nonzero"/></clipPath><clipPath id="6f571542e0"><path d="M 0.109375 0 L 117.394531 0 L 117.394531 84.875 L 0.109375 84.875 Z M 0.109375 0 " clip-rule="nonzero"/></clipPath><clipPath id="a4776ea52d"><path d="M 135.332031 43.179688 L 99.242188 126.285156 L 0.234375 83.289062 L 36.320312 0.183594 Z M 135.332031 43.179688 " clip-rule="nonzero"/></clipPath><clipPath id="87e64cdac6"><path d="M 117.289062 84.730469 L 0.238281 83.289062 L 36.328125 0.1875 Z M 117.289062 84.730469 " clip-rule="nonzero"/></clipPath><clipPath id="97551ba5c0"><rect x="0" width="118" y="0" height="85"/></clipPath><clipPath id="129ee5716b"><path d="M 331 442 L 371 442 L 371 526 L 331 526 Z M 331 442 " clip-rule="nonzero"/></clipPath><clipPath id="6fd26b4023"><path d="M 313.386719 516.382812 L 349.605469 433.320312 L 370.617188 442.480469 L 334.398438 525.546875 Z M 313.386719 516.382812 " clip-rule="nonzero"/></clipPath><clipPath id="e020db23f2"><path d="M 331.492188 474.859375 L 370.609375 442.496094 L 334.398438 525.546875 Z M 331.492188 474.859375 " clip-rule="nonzero"/></clipPath><clipPath id="c269c2570a"><path d="M 0.472656 0.445312 L 39.804688 0.445312 L 39.804688 83.675781 L 0.472656 83.675781 Z M 0.472656 0.445312 " clip-rule="nonzero"/></clipPath><clipPath id="f38a414a22"><path d="M -17.613281 74.382812 L 18.605469 -8.679688 L 39.617188 0.480469 L 3.398438 83.546875 Z M -17.613281 74.382812 " clip-rule="nonzero"/></clipPath><clipPath id="cdcaf189b3"><path d="M 0.492188 32.859375 L 39.609375 0.496094 L 3.398438 83.546875 Z M 0.492188 32.859375 " clip-rule="nonzero"/></clipPath><clipPath id="0b02db6825"><rect x="0" width="40" y="0" height="84"/></clipPath><clipPath id="857401b782"><path d="M 241 532 L 327 532 L 327 650 L 241 650 Z M 241 532 " clip-rule="nonzero"/></clipPath><clipPath id="c161eda15b"><path d="M 368.167969 631.359375 L 285.144531 667.625 L 241.9375 568.707031 L 324.960938 532.441406 Z M 368.167969 631.359375 " clip-rule="nonzero"/></clipPath><clipPath id="1a33f5a2c6"><path d="M 326.65625 649.492188 L 241.9375 568.710938 L 324.964844 532.445312 Z M 326.65625 649.492188 " clip-rule="nonzero"/></clipPath><clipPath id="cf65ff546e"><path d="M 0.769531 0.390625 L 85.675781 0.390625 L 85.675781 117.675781 L 0.769531 117.675781 Z M 0.769531 0.390625 " clip-rule="nonzero"/></clipPath><clipPath id="13cd53188c"><path d="M 127.167969 99.359375 L 44.144531 135.625 L 0.9375 36.707031 L 83.960938 0.441406 Z M 127.167969 99.359375 " clip-rule="nonzero"/></clipPath><clipPath id="2d146fa17a"><path d="M 85.65625 117.492188 L 0.9375 36.710938 L 83.964844 0.445312 Z M 85.65625 117.492188 " clip-rule="nonzero"/></clipPath><clipPath id="048658c2ba"><rect x="0" width="86" y="0" height="118"/></clipPath><clipPath id="b24f58ac15"><path d="M 241 529 L 325 529 L 325 570 L 241 570 Z M 241 529 " clip-rule="nonzero"/></clipPath><clipPath id="8a7e03e1a2"><path d="M 232.738281 547.988281 L 315.832031 511.839844 L 324.976562 532.859375 L 241.882812 569.007812 Z M 232.738281 547.988281 " clip-rule="nonzero"/></clipPath><clipPath id="ed185eee3f"><path d="M 274.277344 529.917969 L 324.960938 532.867188 L 241.882812 569.007812 Z M 274.277344 529.917969 " clip-rule="nonzero"/></clipPath><clipPath id="140ec357ca"><path d="M 0.769531 0.75 L 83.996094 0.75 L 83.996094 40.085938 L 0.769531 40.085938 Z M 0.769531 0.75 " clip-rule="nonzero"/></clipPath><clipPath id="7aa8c5182e"><path d="M -8.261719 18.988281 L 74.832031 -17.160156 L 83.976562 3.859375 L 0.882812 40.007812 Z M -8.261719 18.988281 " clip-rule="nonzero"/></clipPath><clipPath id="5d44a733d3"><path d="M 33.277344 0.917969 L 83.960938 3.867188 L 0.882812 40.007812 Z M 33.277344 0.917969 " clip-rule="nonzero"/></clipPath><clipPath id="8ed30609c2"><rect x="0" width="84" y="0" height="41"/></clipPath><clipPath id="c730d83cd3"><path d="M 335 344 L 453 344 L 453 429 L 335 429 Z M 335 344 " clip-rule="nonzero"/></clipPath><clipPath id="688e4ada8f"><path d="M 435.054688 303.25 L 470.535156 386.617188 L 371.210938 428.886719 L 335.734375 345.519531 Z M 435.054688 303.25 " clip-rule="nonzero"/></clipPath><clipPath id="e2369581e8"><path d="M 452.796875 344.933594 L 371.21875 428.882812 L 335.742188 345.519531 Z M 452.796875 344.933594 " clip-rule="nonzero"/></clipPath><clipPath id="d785b05dce"><path d="M 0.546875 0.828125 L 117.835938 0.828125 L 117.835938 85 L 0.546875 85 Z M 0.546875 0.828125 " clip-rule="nonzero"/></clipPath><clipPath id="ffc23c5055"><path d="M 100.054688 -40.75 L 135.535156 42.617188 L 36.210938 84.886719 L 0.734375 1.519531 Z M 100.054688 -40.75 " clip-rule="nonzero"/></clipPath><clipPath id="d1fe6d79f6"><path d="M 117.796875 0.933594 L 36.21875 84.882812 L 0.742188 1.519531 Z M 117.796875 0.933594 " clip-rule="nonzero"/></clipPath><clipPath id="02ef38a69e"><rect x="0" width="118" y="0" height="85"/></clipPath><clipPath id="a688eccb0b"><path d="M 332 345 L 372 345 L 372 429 L 332 429 Z M 332 345 " clip-rule="nonzero"/></clipPath><clipPath id="8a21781a07"><path d="M 350.40625 437.886719 L 315.046875 354.453125 L 336.152344 345.507812 L 371.511719 428.941406 Z M 350.40625 437.886719 " clip-rule="nonzero"/></clipPath><clipPath id="aaf127a09a"><path d="M 332.730469 396.179688 L 336.160156 345.523438 L 371.511719 428.941406 Z M 332.730469 396.179688 " clip-rule="nonzero"/></clipPath><clipPath id="76b9e368db"><path d="M 0.671875 0.308594 L 39.527344 0.308594 L 39.527344 84 L 0.671875 84 Z M 0.671875 0.308594 " clip-rule="nonzero"/></clipPath><clipPath id="c7c4a467ae"><path d="M 18.40625 92.886719 L -16.953125 9.453125 L 4.152344 0.507812 L 39.511719 83.941406 Z M 18.40625 92.886719 " clip-rule="nonzero"/></clipPath><clipPath id="f707954474"><path d="M 0.730469 51.179688 L 4.160156 0.523438 L 39.511719 83.941406 Z M 0.730469 51.179688 " clip-rule="nonzero"/></clipPath><clipPath id="40d21079f5"><rect x="0" width="40" y="0" height="84"/></clipPath><clipPath id="fc2a2afd31"><path d="M 145 535 L 232 535 L 232 653 L 145 653 Z M 145 535 " clip-rule="nonzero"/></clipPath><clipPath id="a1da383d8b"><path d="M 187.390625 670.578125 L 104.570312 633.847656 L 148.328125 535.171875 L 231.152344 571.902344 Z M 187.390625 670.578125 " clip-rule="nonzero"/></clipPath><clipPath id="b18e370bcd"><path d="M 145.980469 652.210938 L 148.324219 535.179688 L 231.148438 571.90625 Z M 145.980469 652.210938 " clip-rule="nonzero"/></clipPath><clipPath id="a6b323001c"><path d="M 0.828125 0.0273438 L 86.214844 0.0273438 L 86.214844 117.3125 L 0.828125 117.3125 Z M 0.828125 0.0273438 " clip-rule="nonzero"/></clipPath><clipPath id="c3264eda62"><path d="M 42.390625 135.578125 L -40.429688 98.847656 L 3.328125 0.171875 L 86.152344 36.902344 Z M 42.390625 135.578125 " clip-rule="nonzero"/></clipPath><clipPath id="710f2e32e8"><path d="M 0.980469 117.210938 L 3.324219 0.179688 L 86.148438 36.90625 Z M 0.980469 117.210938 " clip-rule="nonzero"/></clipPath><clipPath id="251dd2349e"><rect x="0" width="87" y="0" height="118"/></clipPath><clipPath id="1a9f985ffb"><path d="M 148 532 L 231 532 L 231 573 L 148 573 Z M 148 532 " clip-rule="nonzero"/></clipPath><clipPath id="1c2e51fa0d"><path d="M 157.390625 514.394531 L 240.175781 551.253906 L 230.851562 572.195312 L 148.066406 535.335938 Z M 157.390625 514.394531 " clip-rule="nonzero"/></clipPath><clipPath id="396b09d693"><path d="M 198.773438 532.820312 L 230.835938 572.1875 L 148.066406 535.335938 Z M 198.773438 532.820312 " clip-rule="nonzero"/></clipPath><clipPath id="b5700d55ac"><path d="M 0 0.628906 L 82.972656 0.628906 L 82.972656 40.203125 L 0 40.203125 Z M 0 0.628906 " clip-rule="nonzero"/></clipPath><clipPath id="a567ce38dc"><path d="M 9.390625 -17.605469 L 92.175781 19.253906 L 82.851562 40.195312 L 0.0664062 3.335938 Z M 9.390625 -17.605469 " clip-rule="nonzero"/></clipPath><clipPath id="8e896653d1"><path d="M 50.773438 0.820312 L 82.835938 40.1875 L 0.0664062 3.335938 Z M 50.773438 0.820312 " clip-rule="nonzero"/></clipPath><clipPath id="6cb6d8e9dc"><rect x="0" width="83" y="0" height="41"/></clipPath><clipPath id="a77549719d"><path d="M 736 1065 L 854 1065 L 854 1150 L 736 1150 Z M 736 1065 " clip-rule="nonzero"/></clipPath><clipPath id="9210d2da98"><path d="M 718.5625 1106.597656 L 754.648438 1023.492188 L 853.660156 1066.488281 L 817.574219 1149.59375 Z M 718.5625 1106.597656 " clip-rule="nonzero"/></clipPath><clipPath id="b46053e8ac"><path d="M 736.605469 1065.042969 L 853.652344 1066.484375 L 817.566406 1149.589844 Z M 736.605469 1065.042969 " clip-rule="nonzero"/></clipPath><clipPath id="7b81011d4c"><path d="M 0.574219 0 L 117.863281 0 L 117.863281 84.761719 L 0.574219 84.761719 Z M 0.574219 0 " clip-rule="nonzero"/></clipPath><clipPath id="18ba842eb7"><path d="M -17.4375 41.597656 L 18.648438 -41.507812 L 117.660156 1.488281 L 81.574219 84.59375 Z M -17.4375 41.597656 " clip-rule="nonzero"/></clipPath><clipPath id="4d7eeafcdc"><path d="M 0.605469 0.0429688 L 117.652344 1.484375 L 81.566406 84.589844 Z M 0.605469 0.0429688 " clip-rule="nonzero"/></clipPath><clipPath id="0e58030ca2"><rect x="0" width="118" y="0" height="85"/></clipPath><clipPath id="6266e34b2c"><path d="M 817 1066 L 857 1066 L 857 1150 L 817 1150 Z M 817 1066 " clip-rule="nonzero"/></clipPath><clipPath id="a6d6d5874e"><path d="M 874.507812 1075.390625 L 838.289062 1158.457031 L 817.277344 1149.296875 L 853.496094 1066.230469 Z M 874.507812 1075.390625 " clip-rule="nonzero"/></clipPath><clipPath id="d12a530ca7"><path d="M 856.402344 1116.917969 L 817.28125 1149.28125 L 853.496094 1066.230469 Z M 856.402344 1116.917969 " clip-rule="nonzero"/></clipPath><clipPath id="6bcae33681"><path d="M 0.164062 0.0546875 L 39.5 0.0546875 L 39.5 83.28125 L 0.164062 83.28125 Z M 0.164062 0.0546875 " clip-rule="nonzero"/></clipPath><clipPath id="0a90587809"><path d="M 57.507812 9.390625 L 21.289062 92.457031 L 0.277344 83.296875 L 36.496094 0.230469 Z M 57.507812 9.390625 " clip-rule="nonzero"/></clipPath><clipPath id="5d045dbfb8"><path d="M 39.402344 50.917969 L 0.28125 83.28125 L 36.496094 0.230469 Z M 39.402344 50.917969 " clip-rule="nonzero"/></clipPath><clipPath id="ef0f882956"><rect x="0" width="40" y="0" height="84"/></clipPath><clipPath id="66830b3c0b"><path d="M 861 942 L 946 942 L 946 1060 L 861 1060 Z M 861 942 " clip-rule="nonzero"/></clipPath><clipPath id="389f90468e"><path d="M 819.71875 960.421875 L 902.746094 924.15625 L 945.953125 1023.074219 L 862.925781 1059.339844 Z M 819.71875 960.421875 " clip-rule="nonzero"/></clipPath><clipPath id="7260f07ef9"><path d="M 861.234375 942.289062 L 945.949219 1023.066406 L 862.925781 1059.332031 Z M 861.234375 942.289062 " clip-rule="nonzero"/></clipPath><clipPath id="4aaa3baba3"><path d="M 0.0585938 0.0507812 L 84.964844 0.0507812 L 84.964844 117.339844 L 0.0585938 117.339844 Z M 0.0585938 0.0507812 " clip-rule="nonzero"/></clipPath><clipPath id="81a45cea56"><path d="M -41.28125 18.421875 L 41.746094 -17.84375 L 84.953125 81.074219 L 1.925781 117.339844 Z M -41.28125 18.421875 " clip-rule="nonzero"/></clipPath><clipPath id="0b88dc8d9e"><path d="M 0.234375 0.289062 L 84.949219 81.066406 L 1.925781 117.332031 Z M 0.234375 0.289062 " clip-rule="nonzero"/></clipPath><clipPath id="fa6d03804b"><rect x="0" width="85" y="0" height="118"/></clipPath><clipPath id="f33db5e2e6"><path d="M 862 1022 L 947 1022 L 947 1062 L 862 1062 Z M 862 1022 " clip-rule="nonzero"/></clipPath><clipPath id="88905317bb"><path d="M 955.152344 1043.789062 L 872.058594 1079.941406 L 862.914062 1058.917969 L 946.007812 1022.769531 Z M 955.152344 1043.789062 " clip-rule="nonzero"/></clipPath><clipPath id="e06a8880d7"><path d="M 913.613281 1061.863281 L 862.929688 1058.914062 L 946.007812 1022.769531 Z M 913.613281 1061.863281 " clip-rule="nonzero"/></clipPath><clipPath id="1dccb6ed33"><path d="M 0.738281 0.640625 L 84.203125 0.640625 L 84.203125 39.976562 L 0.738281 39.976562 Z M 0.738281 0.640625 " clip-rule="nonzero"/></clipPath><clipPath id="0914efeaf9"><path d="M 93.152344 21.789062 L 10.058594 57.941406 L 0.914062 36.917969 L 84.007812 0.769531 Z M 93.152344 21.789062 " clip-rule="nonzero"/></clipPath><clipPath id="e9eb989d5b"><path d="M 51.613281 39.863281 L 0.929688 36.914062 L 84.007812 0.769531 Z M 51.613281 39.863281 " clip-rule="nonzero"/></clipPath><clipPath id="b89139d417"><rect x="0" width="85" y="0" height="40"/></clipPath><clipPath id="bf5bebc0d1"><path d="M 735 1162 L 853 1162 L 853 1247 L 735 1247 Z M 735 1162 " clip-rule="nonzero"/></clipPath><clipPath id="b80f92ef23"><path d="M 752.832031 1288.519531 L 717.351562 1205.15625 L 816.675781 1162.886719 L 852.15625 1246.253906 Z M 752.832031 1288.519531 " clip-rule="nonzero"/></clipPath><clipPath id="3a68483998"><path d="M 735.09375 1246.839844 L 816.667969 1162.890625 L 852.148438 1246.253906 Z M 735.09375 1246.839844 " clip-rule="nonzero"/></clipPath><clipPath id="a620fc8157"><path d="M 0 0.710938 L 117.183594 0.710938 L 117.183594 84.898438 L 0 84.898438 Z M 0 0.710938 " clip-rule="nonzero"/></clipPath><clipPath id="d7404837c7"><path d="M 17.832031 126.519531 L -17.648438 43.15625 L 81.675781 0.886719 L 117.15625 84.253906 Z M 17.832031 126.519531 " clip-rule="nonzero"/></clipPath><clipPath id="db6e4f1419"><path d="M 0.09375 84.839844 L 81.667969 0.890625 L 117.148438 84.253906 Z M 0.09375 84.839844 " clip-rule="nonzero"/></clipPath><clipPath id="fa6df337a8"><rect x="0" width="118" y="0" height="85"/></clipPath><clipPath id="cd28f30239"><path d="M 816 1162 L 856 1162 L 856 1247 L 816 1247 Z M 816 1162 " clip-rule="nonzero"/></clipPath><clipPath id="b8b5951c2c"><path d="M 837.480469 1153.886719 L 872.839844 1237.320312 L 851.734375 1246.265625 L 816.375 1162.828125 Z M 837.480469 1153.886719 " clip-rule="nonzero"/></clipPath><clipPath id="167c0f0363"><path d="M 855.15625 1195.59375 L 851.730469 1246.25 L 816.375 1162.828125 Z M 855.15625 1195.59375 " clip-rule="nonzero"/></clipPath><clipPath id="12a1b65ab1"><path d="M 0.207031 0.710938 L 39.300781 0.710938 L 39.300781 84.421875 L 0.207031 84.421875 Z M 0.207031 0.710938 " clip-rule="nonzero"/></clipPath><clipPath id="32e192de1b"><path d="M 21.480469 -8.113281 L 56.839844 75.320312 L 35.734375 84.265625 L 0.375 0.828125 Z M 21.480469 -8.113281 " clip-rule="nonzero"/></clipPath><clipPath id="9c267711ef"><path d="M 39.15625 33.59375 L 35.730469 84.25 L 0.375 0.828125 Z M 39.15625 33.59375 " clip-rule="nonzero"/></clipPath><clipPath id="2d9087ff6a"><rect x="0" width="40" y="0" height="85"/></clipPath><clipPath id="3327f74681"><path d="M 956 939 L 1042 939 L 1042 1057 L 956 1057 Z M 956 939 " clip-rule="nonzero"/></clipPath><clipPath id="713fdeb8a8"><path d="M 1000.5 921.207031 L 1083.320312 957.9375 L 1039.5625 1056.613281 L 956.742188 1019.882812 Z M 1000.5 921.207031 " clip-rule="nonzero"/></clipPath><clipPath id="fe29cd6e6a"><path d="M 1041.910156 939.574219 L 1039.566406 1056.605469 L 956.742188 1019.875 Z M 1041.910156 939.574219 " clip-rule="nonzero"/></clipPath><clipPath id="2c8c11bcce"><path d="M 0.515625 0.414062 L 86 0.414062 L 86 117.699219 L 0.515625 117.699219 Z M 0.515625 0.414062 " clip-rule="nonzero"/></clipPath><clipPath id="d4d54f0d1b"><path d="M 44.5 -17.792969 L 127.320312 18.9375 L 83.5625 117.613281 L 0.742188 80.882812 Z M 44.5 -17.792969 " clip-rule="nonzero"/></clipPath><clipPath id="15e67467f8"><path d="M 85.910156 0.574219 L 83.566406 117.605469 L 0.742188 80.875 Z M 85.910156 0.574219 " clip-rule="nonzero"/></clipPath><clipPath id="6d09f7dbc1"><rect x="0" width="86" y="0" height="118"/></clipPath><clipPath id="4bdf47e612"><path d="M 957 1019 L 1040 1019 L 1040 1059 L 957 1059 Z M 957 1019 " clip-rule="nonzero"/></clipPath><clipPath id="1215f42d52"><path d="M 1030.5 1077.386719 L 947.714844 1040.53125 L 957.039062 1019.589844 L 1039.824219 1056.445312 Z M 1030.5 1077.386719 " clip-rule="nonzero"/></clipPath><clipPath id="db09dc348e"><path d="M 989.117188 1058.960938 L 957.054688 1019.59375 L 1039.824219 1056.445312 Z M 989.117188 1058.960938 " clip-rule="nonzero"/></clipPath><clipPath id="ba70a66e76"><path d="M 0 0.523438 L 82.984375 0.523438 L 82.984375 40 L 0 40 Z M 0 0.523438 " clip-rule="nonzero"/></clipPath><clipPath id="4c7df42559"><path d="M 73.5 58.386719 L -9.285156 21.53125 L 0.0390625 0.589844 L 82.824219 37.445312 Z M 73.5 58.386719 " clip-rule="nonzero"/></clipPath><clipPath id="159e1581de"><path d="M 32.117188 39.960938 L 0.0546875 0.59375 L 82.824219 37.445312 Z M 32.117188 39.960938 " clip-rule="nonzero"/></clipPath><clipPath id="4c2e8e0357"><rect x="0" width="83" y="0" height="40"/></clipPath><clipPath id="02169aa9b0"><path d="M 241 940 L 327 940 L 327 1058 L 241 1058 Z M 241 940 " clip-rule="nonzero"/></clipPath><clipPath id="b91ed38723"><path d="M 284.726562 921.992188 L 367.832031 958.082031 L 324.835938 1057.089844 L 241.734375 1021.003906 Z M 284.726562 921.992188 " clip-rule="nonzero"/></clipPath><clipPath id="105291e142"><path d="M 326.28125 940.039062 L 324.839844 1057.085938 L 241.734375 1020.996094 Z M 326.28125 940.039062 " clip-rule="nonzero"/></clipPath><clipPath id="331c64461e"><path d="M 0.527344 0 L 85.433594 0 L 85.433594 117.179688 L 0.527344 117.179688 Z M 0.527344 0 " clip-rule="nonzero"/></clipPath><clipPath id="ff762d1838"><path d="M 43.726562 -18.007812 L 126.832031 18.082031 L 83.835938 117.089844 L 0.734375 81.003906 Z M 43.726562 -18.007812 " clip-rule="nonzero"/></clipPath><clipPath id="b7e480193f"><path d="M 85.28125 0.0390625 L 83.839844 117.085938 L 0.734375 80.996094 Z M 85.28125 0.0390625 " clip-rule="nonzero"/></clipPath><clipPath id="c8ac21ab37"><rect x="0" width="86" y="0" height="118"/></clipPath><clipPath id="cba9d894c0"><path d="M 242 1020 L 326 1020 L 326 1060 L 242 1060 Z M 242 1020 " clip-rule="nonzero"/></clipPath><clipPath id="f91d371827"><path d="M 315.933594 1077.9375 L 232.867188 1041.71875 L 242.03125 1020.707031 L 325.09375 1056.925781 Z M 315.933594 1077.9375 " clip-rule="nonzero"/></clipPath><clipPath id="8b34b5d147"><path d="M 274.40625 1059.832031 L 242.042969 1020.714844 L 325.09375 1056.925781 Z M 274.40625 1059.832031 " clip-rule="nonzero"/></clipPath><clipPath id="d7b4357b96"><path d="M 0.0078125 0.480469 L 83.234375 0.480469 L 83.234375 40 L 0.0078125 40 Z M 0.0078125 0.480469 " clip-rule="nonzero"/></clipPath><clipPath id="879cd52e5c"><path d="M 73.933594 57.9375 L -9.132812 21.71875 L 0.03125 0.707031 L 83.09375 36.925781 Z M 73.933594 57.9375 " clip-rule="nonzero"/></clipPath><clipPath id="a3bf060102"><path d="M 32.40625 39.832031 L 0.0429688 0.714844 L 83.09375 36.925781 Z M 32.40625 39.832031 " clip-rule="nonzero"/></clipPath><clipPath id="d9c3ba4e1b"><rect x="0" width="84" y="0" height="40"/></clipPath><clipPath id="5cc660bb7a"><path d="M 331 1064 L 450 1064 L 450 1150 L 331 1150 Z M 331 1064 " clip-rule="nonzero"/></clipPath><clipPath id="1af1593106"><path d="M 430.902344 1023.15625 L 467.167969 1106.179688 L 368.25 1149.386719 L 331.984375 1066.363281 Z M 430.902344 1023.15625 " clip-rule="nonzero"/></clipPath><clipPath id="74c70dd8f1"><path d="M 449.035156 1064.667969 L 368.257812 1149.386719 L 331.992188 1066.359375 Z M 449.035156 1064.667969 " clip-rule="nonzero"/></clipPath><clipPath id="57d704e3f5"><path d="M 0.949219 0.613281 L 118.238281 0.613281 L 118.238281 85.519531 L 0.949219 85.519531 Z M 0.949219 0.613281 " clip-rule="nonzero"/></clipPath><clipPath id="454f1c40da"><path d="M 99.902344 -40.84375 L 136.167969 42.179688 L 37.25 85.386719 L 0.984375 2.363281 Z M 99.902344 -40.84375 " clip-rule="nonzero"/></clipPath><clipPath id="92191b8eac"><path d="M 118.035156 0.667969 L 37.257812 85.386719 L 0.992188 2.359375 Z M 118.035156 0.667969 " clip-rule="nonzero"/></clipPath><clipPath id="63a47fe31a"><rect x="0" width="119" y="0" height="86"/></clipPath><clipPath id="4b7b706c2b"><path d="M 329 1066 L 369 1066 L 369 1150 L 329 1150 Z M 329 1066 " clip-rule="nonzero"/></clipPath><clipPath id="ad3f6b7d5f"><path d="M 347.535156 1158.585938 L 311.382812 1075.492188 L 332.40625 1066.347656 L 368.554688 1149.441406 Z M 347.535156 1158.585938 " clip-rule="nonzero"/></clipPath><clipPath id="e70c7598ff"><path d="M 329.460938 1117.046875 L 332.410156 1066.363281 L 368.554688 1149.441406 Z M 329.460938 1117.046875 " clip-rule="nonzero"/></clipPath><clipPath id="e3c1f3273b"><path d="M 0.3125 0.292969 L 39.648438 0.292969 L 39.648438 83.519531 L 0.3125 83.519531 Z M 0.3125 0.292969 " clip-rule="nonzero"/></clipPath><clipPath id="0fb9342f87"><path d="M 18.535156 92.585938 L -17.617188 9.492188 L 3.40625 0.347656 L 39.554688 83.441406 Z M 18.535156 92.585938 " clip-rule="nonzero"/></clipPath><clipPath id="3a687c1327"><path d="M 0.460938 51.046875 L 3.410156 0.363281 L 39.554688 83.441406 Z M 0.460938 51.046875 " clip-rule="nonzero"/></clipPath><clipPath id="aa06fb0072"><rect x="0" width="40" y="0" height="84"/></clipPath><clipPath id="f1a4ca9299"><path d="M 144 938 L 229 938 L 229 1056 L 144 1056 Z M 144 938 " clip-rule="nonzero"/></clipPath><clipPath id="ef69ff57dd"><path d="M 102.800781 956.265625 L 186.164062 920.785156 L 228.433594 1020.109375 L 145.066406 1055.585938 Z M 102.800781 956.265625 " clip-rule="nonzero"/></clipPath><clipPath id="c9895355af"><path d="M 144.480469 938.523438 L 228.429688 1020.101562 L 145.066406 1055.578125 Z M 144.480469 938.523438 " clip-rule="nonzero"/></clipPath><clipPath id="513cd8fb8c"><path d="M 0.390625 0.453125 L 84.574219 0.453125 L 84.574219 117.738281 L 0.390625 117.738281 Z M 0.390625 0.453125 " clip-rule="nonzero"/></clipPath><clipPath id="a77851a438"><path d="M -41.199219 18.265625 L 42.164062 -17.214844 L 84.433594 82.109375 L 1.066406 117.585938 Z M -41.199219 18.265625 " clip-rule="nonzero"/></clipPath><clipPath id="548489399e"><path d="M 0.480469 0.523438 L 84.429688 82.101562 L 1.066406 117.578125 Z M 0.480469 0.523438 " clip-rule="nonzero"/></clipPath><clipPath id="c560e7dc71"><rect x="0" width="85" y="0" height="118"/></clipPath><clipPath id="ee45c14951"><path d="M 145 1019 L 229 1019 L 229 1059 L 145 1059 Z M 145 1019 " clip-rule="nonzero"/></clipPath><clipPath id="2ce3f970e4"><path d="M 237.433594 1040.914062 L 154 1076.273438 L 145.054688 1055.167969 L 228.492188 1019.808594 Z M 237.433594 1040.914062 " clip-rule="nonzero"/></clipPath><clipPath id="821df4c6ac"><path d="M 195.726562 1058.589844 L 145.070312 1055.160156 L 228.492188 1019.808594 Z M 195.726562 1058.589844 " clip-rule="nonzero"/></clipPath><clipPath id="a0f6e603ca"><path d="M 0 0.761719 L 83.574219 0.761719 L 83.574219 39.617188 L 0 39.617188 Z M 0 0.761719 " clip-rule="nonzero"/></clipPath><clipPath id="815ca77a67"><path d="M 92.433594 21.914062 L 9 57.273438 L 0.0546875 36.167969 L 83.492188 0.808594 Z M 92.433594 21.914062 " clip-rule="nonzero"/></clipPath><clipPath id="6987e88158"><path d="M 50.726562 39.589844 L 0.0703125 36.160156 L 83.492188 0.808594 Z M 50.726562 39.589844 " clip-rule="nonzero"/></clipPath><clipPath id="69224c25b6"><rect x="0" width="84" y="0" height="40"/></clipPath><clipPath id="a66531e5b4"><path d="M 334 1160 L 452 1160 L 452 1246 L 334 1246 Z M 334 1160 " clip-rule="nonzero"/></clipPath><clipPath id="af62818855"><path d="M 470.121094 1203.9375 L 433.390625 1286.757812 L 334.714844 1243 L 371.445312 1160.175781 Z M 470.121094 1203.9375 " clip-rule="nonzero"/></clipPath><clipPath id="d063af8ceb"><path d="M 451.753906 1245.347656 L 334.722656 1243.003906 L 371.449219 1160.179688 Z M 451.753906 1245.347656 " clip-rule="nonzero"/></clipPath><clipPath id="c5670d486c"><path d="M 0.589844 0.0742188 L 117.875 0.0742188 L 117.875 85.460938 L 0.589844 85.460938 Z M 0.589844 0.0742188 " clip-rule="nonzero"/></clipPath><clipPath id="1cf05f4a7f"><path d="M 136.121094 43.9375 L 99.390625 126.757812 L 0.714844 83 L 37.445312 0.175781 Z M 136.121094 43.9375 " clip-rule="nonzero"/></clipPath><clipPath id="0ee517ff90"><path d="M 117.753906 85.347656 L 0.722656 83.003906 L 37.449219 0.179688 Z M 117.753906 85.347656 " clip-rule="nonzero"/></clipPath><clipPath id="6b73717372"><rect x="0" width="118" y="0" height="86"/></clipPath><clipPath id="4b922f0d68"><path d="M 332 1160 L 372 1160 L 372 1244 L 332 1244 Z M 332 1160 " clip-rule="nonzero"/></clipPath><clipPath id="428d2a542a"><path d="M 313.9375 1233.9375 L 350.796875 1151.152344 L 371.738281 1160.476562 L 334.878906 1243.261719 Z M 313.9375 1233.9375 " clip-rule="nonzero"/></clipPath><clipPath id="a0c6c55e69"><path d="M 332.367188 1192.550781 L 371.734375 1160.492188 L 334.878906 1243.261719 Z M 332.367188 1192.550781 " clip-rule="nonzero"/></clipPath><clipPath id="96db974b4d"><path d="M 0.191406 0.3125 L 39.765625 0.3125 L 39.765625 83.300781 L 0.191406 83.300781 Z M 0.191406 0.3125 " clip-rule="nonzero"/></clipPath><clipPath id="afe08d1473"><path d="M -18.0625 73.9375 L 18.796875 -8.847656 L 39.738281 0.476562 L 2.878906 83.261719 Z M -18.0625 73.9375 " clip-rule="nonzero"/></clipPath><clipPath id="ce47fcf8c6"><path d="M 0.367188 32.550781 L 39.734375 0.492188 L 2.878906 83.261719 Z M 0.367188 32.550781 " clip-rule="nonzero"/></clipPath><clipPath id="c8851fa780"><rect x="0" width="40" y="0" height="84"/></clipPath><clipPath id="3a9c022c0b"><path d="M 0 186.25 L 148.0625 186.25 L 148.0625 1372.90625 L 0 1372.90625 Z M 0 186.25 " clip-rule="nonzero"/></clipPath><clipPath id="14a90d15a7"><path d="M 0 0.25 L 148.0625 0.25 L 148.0625 1186.90625 L 0 1186.90625 Z M 0 0.25 " clip-rule="nonzero"/></clipPath><clipPath id="77647d1d45"><rect x="0" width="149" y="0" height="1187"/></clipPath><clipPath id="ed46a8ebf3"><path d="M 1040.320312 195.824219 L 1189.5 195.824219 L 1189.5 1382.480469 L 1040.320312 1382.480469 Z M 1040.320312 195.824219 " clip-rule="nonzero"/></clipPath><clipPath id="a7db83b8db"><path d="M 0.320312 0.824219 L 149.5 0.824219 L 149.5 1187.480469 L 0.320312 1187.480469 Z M 0.320312 0.824219 " clip-rule="nonzero"/></clipPath><clipPath id="4637e2d680"><rect x="0" width="150" y="0" height="1188"/></clipPath><clipPath id="9d0f5049c7"><path d="M 0 1234.28125 L 1189.5 1234.28125 L 1189.5 1451.746094 L 0 1451.746094 Z M 0 1234.28125 " clip-rule="nonzero"/></clipPath><clipPath id="b7fed13597"><path d="M 0 0.28125 L 1189.5 0.28125 L 1189.5 217.746094 L 0 217.746094 Z M 0 0.28125 " clip-rule="nonzero"/></clipPath><clipPath id="e3d6945242"><rect x="0" width="1190" y="0" height="218"/></clipPath><clipPath id="f779dcb493"><path d="M 0 131.054688 L 1189.5 131.054688 L 1189.5 348.519531 L 0 348.519531 Z M 0 131.054688 " clip-rule="nonzero"/></clipPath><clipPath id="5bc9d17569"><path d="M 0 0.0546875 L 1189.5 0.0546875 L 1189.5 217.519531 L 0 217.519531 Z M 0 0.0546875 " clip-rule="nonzero"/></clipPath><clipPath id="fe6d0f9a6f"><rect x="0" width="1190" y="0" height="218"/></clipPath><clipPath id="9e68722b50"><rect x="0" width="1190" y="0" height="1684"/></clipPath></defs><g clip-path="url(#bdc907f7a2)"><path fill="#ffffff" d="M 0 0.40625 L 1189.5 0.40625 L 1189.5 1683.09375 L 0 1683.09375 Z M 0 0.40625 " fill-opacity="1" fill-rule="nonzero"/><g transform="matrix(1, 0, 0, 1, 0, 0.000000000000081102)"><g clip-path="url(#9e68722b50)"><g clip-path="url(#8e40a9f10c)"><path fill="#ffffff" d="M 0 0.40625 L 1189.199219 0.40625 L 1189.199219 1682.667969 L 0 1682.667969 Z M 0 0.40625 " fill-opacity="1" fill-rule="nonzero"/></g><g clip-path="url(#c14d32a4ae)"><g clip-path="url(#eb2f05c2b8)"><g transform="matrix(1, 0, 0, 1, 601, 532)"><g clip-path="url(#1bb6ef79ba)"><g clip-path="url(#2b770b9890)"><g clip-path="url(#b70aeb4043)"><path fill="#812c2c" d="M 0.0078125 128.441406 L 128.25 0.195312 L 255.996094 127.941406 L 127.75 256.1875 Z M 0.0078125 128.441406 " fill-opacity="1" fill-rule="nonzero"/></g></g></g></g></g></g><g clip-path="url(#c5cc84f83b)"><g clip-path="url(#454c831fa1)"><g transform="matrix(1, 0, 0, 1, 332, 802)"><g clip-path="url(#408a5b34b6)"><g clip-path="url(#58dbcef140)"><g clip-path="url(#abb029c791)"><path fill="#812c2c" d="M 256.492188 128.433594 L 128.246094 256.679688 L 0.5 128.933594 L 128.746094 0.6875 Z M 256.492188 128.433594 " fill-opacity="1" fill-rule="nonzero"/></g></g></g></g></g></g><g clip-path="url(#0c84f3dad8)"><g clip-path="url(#07d59c63b6)"><g transform="matrix(1, 0, 0, 1, 601, 801)"><g clip-path="url(#22d5eb9535)"><g clip-path="url(#d0bcff6aeb)"><g clip-path="url(#852a6b6c6e)"><path fill="#812c2c" d="M 128.234375 0.183594 L 256.480469 128.429688 L 128.734375 256.171875 L 0.488281 127.929688 Z M 128.234375 0.183594 " fill-opacity="1" fill-rule="nonzero"/></g></g></g></g></g></g><g clip-path="url(#ccb4e1989c)"><g clip-path="url(#b8f5276a3b)"><g transform="matrix(1, 0, 0, 1, 330, 532)"><g clip-path="url(#ca85370e74)"><g clip-path="url(#8b46c292df)"><g clip-path="url(#e866af63cd)"><path fill="#812c2c" d="M 129.242188 256.667969 L 0.996094 128.425781 L 128.742188 0.679688 L 256.988281 128.921875 Z M 129.242188 256.667969 " fill-opacity="1" fill-rule="nonzero"/></g></g></g></g></g></g><g clip-path="url(#a691e860b5)"><g transform="matrix(1, 0, 0, 1, 493, 695)"><g clip-path="url(#8b8998e2c8)"><g clip-path="url(#a9a74f0f1d)"><path fill="#ffffff" d="M 202.90625 0.828125 L 202.90625 200.066406 L 0.554688 200.066406 L 0.554688 0.828125 Z M 202.90625 0.828125 " fill-opacity="1" fill-rule="nonzero"/></g></g></g></g><g clip-path="url(#e353a9bf0a)"><g clip-path="url(#592e1bab72)"><g transform="matrix(1, 0, 0, 1, 452, 653)"><g clip-path="url(#007ee7d507)"><g clip-path="url(#43947fc081)"><g clip-path="url(#4f229fd9c8)"><path fill="#ffffff" d="M 143.839844 0.472656 L 284.722656 141.355469 L 141.636719 284.4375 L 0.753906 143.554688 Z M 143.839844 0.472656 " fill-opacity="1" fill-rule="nonzero"/></g></g></g></g></g></g><g clip-path="url(#b696edbbcb)"><g transform="matrix(1, 0, 0, 1, 729, 532)"><g clip-path="url(#e0550cd300)"><g clip-path="url(#f7335da2c7)"><path fill="#812c2c" d="M 0.0585938 122.773438 L 0.0585938 0.078125 L 132.335938 0.078125 L 132.335938 122.773438 Z M 0.0585938 122.773438 " fill-opacity="1" fill-rule="nonzero"/></g></g></g></g><g clip-path="url(#f45b43d01a)"><g transform="matrix(1, 0, 0, 1, 330, 528)"><g clip-path="url(#dbf910aa29)"><g clip-path="url(#f475aeaf6a)"><path fill="#812c2c" d="M 123.570312 132.621094 L 0.878906 132.621094 L 0.878906 0.339844 L 123.570312 0.339844 Z M 123.570312 132.621094 " fill-opacity="1" fill-rule="nonzero"/></g></g></g></g><g clip-path="url(#2b449c45c5)"><g transform="matrix(1, 0, 0, 1, 734, 929)"><g clip-path="url(#025165950e)"><g clip-path="url(#9d85612d0b)"><path fill="#812c2c" d="M 0.90625 0.238281 L 123.597656 0.238281 L 123.597656 132.515625 L 0.90625 132.515625 Z M 0.90625 0.238281 " fill-opacity="1" fill-rule="nonzero"/></g></g></g></g><g clip-path="url(#126af9478c)"><g transform="matrix(1, 0, 0, 1, 327, 936)"><g clip-path="url(#52a4aef860)"><g clip-path="url(#dbddf37c31)"><path fill="#812c2c" d="M 133.441406 0.105469 L 133.441406 122.800781 L 1.160156 122.800781 L 1.160156 0.105469 Z M 133.441406 0.105469 " fill-opacity="1" fill-rule="nonzero"/></g></g></g></g><g clip-path="url(#061ca98b8c)"><g transform="matrix(1, 0, 0, 1, 503, 704)"><g clip-path="url(#8f5957a2b1)"><g clip-path="url(#8605952235)"><path fill="#812c2c" d="M 181.628906 0.167969 L 181.628906 181.660156 L 0.839844 181.660156 L 0.839844 0.167969 Z M 181.628906 0.167969 " fill-opacity="1" fill-rule="nonzero"/></g></g></g></g><g clip-path="url(#e31b929655)"><g clip-path="url(#d6d15ccbf7)"><g transform="matrix(1, 0, 0, 1, 466, 666)"><g clip-path="url(#0658f890e8)"><g clip-path="url(#487d3db2d5)"><g clip-path="url(#615e1e8a39)"><path fill="#812c2c" d="M 256.332031 128.664062 L 127.996094 257 L 0.160156 129.164062 L 128.496094 0.828125 Z M 256.332031 128.664062 " fill-opacity="1" fill-rule="nonzero"/></g></g></g></g></g></g><g clip-path="url(#a461e4c13b)"><g transform="matrix(1, 0, 0, 1, 858, 1062)"><g clip-path="url(#3ce00930d8)"><g clip-path="url(#9c31ade833)"><path fill="#5170ff" d="M 181.492188 0.988281 L 181.492188 182.484375 L 0.703125 182.484375 L 0.703125 0.988281 Z M 181.492188 0.988281 " fill-opacity="1" fill-rule="nonzero"/></g></g></g></g><g clip-path="url(#523a978d16)"><g clip-path="url(#558459388d)"><g transform="matrix(1, 0, 0, 1, 824, 1025)"><g clip-path="url(#6aa1e7e6b6)"><g clip-path="url(#b0cf9d64be)"><g clip-path="url(#51755b62f2)"><path fill="#5170ff" d="M 256.644531 128.488281 L 128.308594 256.824219 L 0.472656 128.988281 L 128.808594 0.652344 Z M 256.644531 128.488281 " fill-opacity="1" fill-rule="nonzero"/></g></g></g></g></g></g><g clip-path="url(#3325b93d77)"><g transform="matrix(1, 0, 0, 1, 862, 350)"><g clip-path="url(#b7ca647d52)"><g clip-path="url(#96648e59f1)"><path fill="#5170ff" d="M 0.808594 0.1875 L 182.304688 0.1875 L 182.304688 180.972656 L 0.808594 180.972656 Z M 0.808594 0.1875 " fill-opacity="1" fill-rule="nonzero"/></g></g></g></g><g clip-path="url(#3313c394dc)"><g clip-path="url(#f094f1ebfe)"><g transform="matrix(1, 0, 0, 1, 825, 309)"><g clip-path="url(#37ff6c185d)"><g clip-path="url(#82b99e3231)"><g clip-path="url(#452aae77e0)"><path fill="#5170ff" d="M 128.308594 0.03125 L 256.644531 128.367188 L 128.808594 256.203125 L 0.472656 127.867188 Z M 128.308594 0.03125 " fill-opacity="1" fill-rule="nonzero"/></g></g></g></g></g></g><g clip-path="url(#a8d44daac8)"><g transform="matrix(1, 0, 0, 1, 145, 1059)"><g clip-path="url(#1bf1bf0d62)"><g clip-path="url(#2bf8adb051)"><path fill="#5170ff" d="M 181.6875 181.695312 L 0.191406 181.695312 L 0.191406 0.90625 L 181.6875 0.90625 Z M 181.6875 181.695312 " fill-opacity="1" fill-rule="nonzero"/></g></g></g></g><g clip-path="url(#5325781725)"><g clip-path="url(#f79990298f)"><g transform="matrix(1, 0, 0, 1, 107, 1025)"><g clip-path="url(#c54ed36407)"><g clip-path="url(#cae85e8bd2)"><g clip-path="url(#9dc83690c7)"><path fill="#5170ff" d="M 129.1875 256.847656 L 0.851562 128.511719 L 128.6875 0.675781 L 257.023438 129.011719 Z M 129.1875 256.847656 " fill-opacity="1" fill-rule="nonzero"/></g></g></g></g></g></g><g clip-path="url(#cbd9b9c930)"><g transform="matrix(1, 0, 0, 1, 148, 345)"><g clip-path="url(#6ad85d163f)"><g clip-path="url(#4088a631f2)"><path fill="#5170ff" d="M 0.984375 181.867188 L 0.984375 0.375 L 181.769531 0.375 L 181.769531 181.867188 Z M 0.984375 181.867188 " fill-opacity="1" fill-rule="nonzero"/></g></g></g></g><g clip-path="url(#ff09eeac68)"><g clip-path="url(#b5c096e3b5)"><g transform="matrix(1, 0, 0, 1, 107, 308)"><g clip-path="url(#cf29afeedc)"><g clip-path="url(#d8da788f6e)"><g clip-path="url(#9e66659fbd)"><path fill="#5170ff" d="M 0.828125 128.367188 L 129.164062 0.0351562 L 257 127.871094 L 128.664062 256.207031 Z M 0.828125 128.367188 " fill-opacity="1" fill-rule="nonzero"/></g></g></g></g></g></g><g clip-path="url(#f071b583e4)"><g transform="matrix(1, 0, 0, 1, 503, 705)"><g clip-path="url(#f22dec512e)"><g clip-path="url(#ecb990e948)"><path fill="#e2830d" d="M 0.984375 0.046875 L 182.480469 0.046875 L 182.480469 180.835938 L 0.984375 180.835938 Z M 0.984375 0.046875 " fill-opacity="1" fill-rule="nonzero"/></g></g></g></g><g clip-path="url(#b7322d5881)"><g clip-path="url(#c18a3a2605)"><g transform="matrix(1, 0, 0, 1, 466, 667)"><g clip-path="url(#6f044fed65)"><g clip-path="url(#03218529f2)"><g clip-path="url(#7d5aeb2c1c)"><path fill="#e2830d" d="M 128.484375 0.34375 L 256.820312 128.679688 L 128.984375 256.515625 L 0.648438 128.179688 Z M 128.484375 0.34375 " fill-opacity="1" fill-rule="nonzero"/></g></g></g></g></g></g><g clip-path="url(#c5f7d480d2)"><g clip-path="url(#29a63ceb8b)"><g transform="matrix(1, 0, 0, 1, 143, 568)"><g clip-path="url(#ddc424e5c7)"><g clip-path="url(#8b64c8f983)"><g clip-path="url(#2b7069fe8e)"><path fill="#ff5757" d="M 93.445312 0.632812 L 184.957031 92.144531 L 92.371094 184.730469 L 0.859375 93.21875 Z M 93.445312 0.632812 " fill-opacity="1" fill-rule="nonzero"/></g></g></g></g></g></g><g clip-path="url(#02025be5cb)"><g clip-path="url(#37091af39f)"><g transform="matrix(1, 0, 0, 1, 143, 841)"><g clip-path="url(#037ceff32f)"><g clip-path="url(#0fa69bf9cf)"><g clip-path="url(#401cdd7c75)"><path fill="#ff5757" d="M 93.410156 0.554688 L 184.921875 92.066406 L 92.335938 184.652344 L 0.824219 93.140625 Z M 93.410156 0.554688 " fill-opacity="1" fill-rule="nonzero"/></g></g></g></g></g></g><g clip-path="url(#2179b9cb7d)"><g transform="matrix(1, 0, 0, 1, 143, 660)"><g clip-path="url(#501378c914)"><g clip-path="url(#e633fc31fa)"><path fill="#ff5757" d="M 184.953125 0.105469 L 184.953125 273.269531 L 0.925781 273.269531 L 0.925781 0.105469 Z M 184.953125 0.105469 " fill-opacity="1" fill-rule="nonzero"/></g></g></g></g><g clip-path="url(#06c9e57048)"><g clip-path="url(#22e6e807d7)"><g transform="matrix(1, 0, 0, 1, 861, 566)"><g clip-path="url(#964782ff37)"><g clip-path="url(#7766799919)"><g clip-path="url(#41818a976a)"><path fill="#ff5757" d="M 93.074219 0.988281 L 184.585938 92.5 L 92 185.085938 L 0.488281 93.574219 Z M 93.074219 0.988281 " fill-opacity="1" fill-rule="nonzero"/></g></g></g></g></g></g><g clip-path="url(#a8ad04394b)"><g clip-path="url(#0919909180)"><g transform="matrix(1, 0, 0, 1, 861, 839)"><g clip-path="url(#56a5429720)"><g clip-path="url(#2049879b8f)"><g clip-path="url(#4a77c3d0b3)"><path fill="#ff5757" d="M 93.035156 0.910156 L 184.550781 92.421875 L 91.964844 185.007812 L 0.453125 93.496094 Z M 93.035156 0.910156 " fill-opacity="1" fill-rule="nonzero"/></g></g></g></g></g></g><g clip-path="url(#0396e53836)"><g transform="matrix(1, 0, 0, 1, 861, 658)"><g clip-path="url(#d9b28a478f)"><g clip-path="url(#60496f3830)"><path fill="#ff5757" d="M 184.582031 0.460938 L 184.582031 273.625 L 0.554688 273.625 L 0.554688 0.460938 Z M 184.582031 0.460938 " fill-opacity="1" fill-rule="nonzero"/></g></g></g></g><g clip-path="url(#bc6daa8dd1)"><g clip-path="url(#fe4d2a411e)"><g transform="matrix(1, 0, 0, 1, 367, 1061)"><g clip-path="url(#319e43701d)"><g clip-path="url(#7d37cff5ae)"><g clip-path="url(#34b7832f16)"><path fill="#ff5757" d="M 0.542969 92.25 L 92.054688 0.738281 L 184.640625 93.324219 L 93.125 184.835938 Z M 0.542969 92.25 " fill-opacity="1" fill-rule="nonzero"/></g></g></g></g></g></g><g clip-path="url(#7a4aca9ca7)"><g clip-path="url(#f7800a008f)"><g transform="matrix(1, 0, 0, 1, 640, 1061)"><g clip-path="url(#d34572f880)"><g clip-path="url(#7d64fd6297)"><g clip-path="url(#217325b2db)"><path fill="#ff5757" d="M 0.460938 92.285156 L 91.976562 0.773438 L 184.5625 93.359375 L 93.046875 184.871094 Z M 0.460938 92.285156 " fill-opacity="1" fill-rule="nonzero"/></g></g></g></g></g></g><g clip-path="url(#b9daf25aa0)"><g transform="matrix(1, 0, 0, 1, 459, 1061)"><g clip-path="url(#8b4159c39b)"><g clip-path="url(#8202fc6b20)"><path fill="#ff5757" d="M 0.0117188 0.742188 L 273.179688 0.742188 L 273.179688 184.769531 L 0.0117188 184.769531 Z M 0.0117188 0.742188 " fill-opacity="1" fill-rule="nonzero"/></g></g></g></g><g clip-path="url(#d773824d84)"><g clip-path="url(#48d3850f42)"><g transform="matrix(1, 0, 0, 1, 368, 345)"><g clip-path="url(#69cea4d0cc)"><g clip-path="url(#0166fc50d1)"><g clip-path="url(#399918d8ed)"><path fill="#ff5757" d="M 0.5625 91.625 L 92.074219 0.113281 L 184.660156 92.699219 L 93.148438 184.210938 Z M 0.5625 91.625 " fill-opacity="1" fill-rule="nonzero"/></g></g></g></g></g></g><g clip-path="url(#11e9a4a922)"><g clip-path="url(#1b7f2318f3)"><g transform="matrix(1, 0, 0, 1, 641, 345)"><g clip-path="url(#02e50e03de)"><g clip-path="url(#8f9a21e67d)"><g clip-path="url(#5f36d0e767)"><path fill="#ff5757" d="M 0.484375 91.660156 L 91.996094 0.148438 L 184.582031 92.734375 L 93.070312 184.246094 Z M 0.484375 91.660156 " fill-opacity="1" fill-rule="nonzero"/></g></g></g></g></g></g><g clip-path="url(#d039698e87)"><g transform="matrix(1, 0, 0, 1, 460, 345)"><g clip-path="url(#178d504b83)"><g clip-path="url(#73d361b637)"><path fill="#ff5757" d="M 0.0351562 0.117188 L 273.199219 0.117188 L 273.199219 184.144531 L 0.0351562 184.144531 Z M 0.0351562 0.117188 " fill-opacity="1" fill-rule="nonzero"/></g></g></g></g><g clip-path="url(#f280659f4c)"><g clip-path="url(#6959956459)"><g transform="matrix(1, 0, 0, 1, 343, 677)"><g clip-path="url(#3b4755d9a7)"><g clip-path="url(#6310df26ad)"><g clip-path="url(#1cf270a7be)"><path fill="#ff6200" d="M 111.832031 0.292969 L 111.832031 224.082031 L 0.371094 224.082031 L 0.371094 0.292969 Z M 111.832031 0.292969 " fill-opacity="1" fill-rule="nonzero"/></g></g></g></g></g></g><g clip-path="url(#8972aef11f)"><g clip-path="url(#4686b88ef6)"><g transform="matrix(1, 0, 0, 1, 482, 940)"><g clip-path="url(#7182d0302d)"><g clip-path="url(#a7394e3217)"><g clip-path="url(#40213c054b)"><path fill="#ff6200" d="M 0.378906 0.414062 L 224.167969 0.414062 L 224.167969 111.871094 L 0.378906 111.871094 Z M 0.378906 0.414062 " fill-opacity="1" fill-rule="nonzero"/></g></g></g></g></g></g><g clip-path="url(#171b61fbcb)"><g clip-path="url(#496017a62d)"><g transform="matrix(1, 0, 0, 1, 736, 685)"><g clip-path="url(#4613845171)"><g clip-path="url(#fc0057ec22)"><g clip-path="url(#b6049fe415)"><path fill="#ff6200" d="M 0.722656 223.9375 L 0.722656 0.148438 L 112.179688 0.148438 L 112.179688 223.9375 Z M 0.722656 223.9375 " fill-opacity="1" fill-rule="nonzero"/></g></g></g></g></g></g><g clip-path="url(#b5a2921bf4)"><g clip-path="url(#86273004bd)"><g transform="matrix(1, 0, 0, 1, 479, 539)"><g clip-path="url(#f7be4fd6c5)"><g clip-path="url(#d8796bb941)"><g clip-path="url(#d4b616281d)"><path fill="#ff6200" d="M 224.167969 111.464844 L 0.375 111.464844 L 0.375 0.00390625 L 224.167969 0.00390625 Z M 224.167969 111.464844 " fill-opacity="1" fill-rule="nonzero"/></g></g></g></g></g></g><g clip-path="url(#023bbe4969)"><g clip-path="url(#5e30895b5f)"><g clip-path="url(#38693d4d23)"><g transform="matrix(1, 0, 0, 1, 863, 534)"><g clip-path="url(#0d16aff29d)"><g clip-path="url(#9ee8e5e36d)"><g clip-path="url(#8c704438a7)"><g clip-path="url(#83f49a5f1c)"><path fill="#3b3d17" d="M 42.296875 135.785156 L -40.808594 99.695312 L 2.1875 0.683594 L 85.292969 36.773438 Z M 42.296875 135.785156 " fill-opacity="1" fill-rule="nonzero"/></g></g></g></g></g></g></g></g><g clip-path="url(#4ba701c869)"><g clip-path="url(#8f72539811)"><g clip-path="url(#2aaeb571ff)"><g transform="matrix(1, 0, 0, 1, 864, 531)"><g clip-path="url(#a131862ddf)"><g clip-path="url(#14c0867683)"><g clip-path="url(#0ca1d9b68c)"><g clip-path="url(#d9960fcae9)"><path fill="#3b3d17" d="M 10.089844 -17.160156 L 93.15625 19.054688 L 83.996094 40.070312 L 0.929688 3.851562 Z M 10.089844 -17.160156 " fill-opacity="1" fill-rule="nonzero"/></g></g></g></g></g></g></g></g><g clip-path="url(#66de6d9223)"><g clip-path="url(#450dc98eaa)"><g clip-path="url(#9fd8c6cbde)"><g transform="matrix(1, 0, 0, 1, 740, 442)"><g clip-path="url(#3ec1236986)"><g clip-path="url(#b9c41d6aa3)"><g clip-path="url(#667c3bb832)"><g clip-path="url(#5eb8f0e610)"><path fill="#3b3d17" d="M 19.117188 126.625 L -17.148438 43.597656 L 81.769531 0.390625 L 118.035156 83.417969 Z M 19.117188 126.625 " fill-opacity="1" fill-rule="nonzero"/></g></g></g></g></g></g></g></g><g clip-path="url(#480347ac8f)"><g clip-path="url(#8c8aa19feb)"><g clip-path="url(#50c74b6073)"><g transform="matrix(1, 0, 0, 1, 821, 442)"><g clip-path="url(#e5ded3a48c)"><g clip-path="url(#fc3ea765cc)"><g clip-path="url(#93b062e8b3)"><g clip-path="url(#da870c671d)"><path fill="#3b3d17" d="M 21.488281 -8.808594 L 57.636719 74.289062 L 36.613281 83.433594 L 0.464844 0.335938 Z M 21.488281 -8.808594 " fill-opacity="1" fill-rule="nonzero"/></g></g></g></g></g></g></g></g><g clip-path="url(#dad32a78e6)"><g clip-path="url(#5935e83359)"><g clip-path="url(#070a2e959f)"><g transform="matrix(1, 0, 0, 1, 961, 536)"><g clip-path="url(#4e148b7953)"><g clip-path="url(#70317c5e8b)"><g clip-path="url(#271fe5d972)"><g clip-path="url(#bec68e3ae0)"><path fill="#3b3d17" d="M 126.21875 99.507812 L 42.851562 134.988281 L 0.585938 35.664062 L 83.949219 0.1875 Z M 126.21875 99.507812 " fill-opacity="1" fill-rule="nonzero"/></g></g></g></g></g></g></g></g><g clip-path="url(#015b433fc6)"><g clip-path="url(#6f44a961f9)"><g clip-path="url(#dbb9784ad7)"><g transform="matrix(1, 0, 0, 1, 961, 533)"><g clip-path="url(#3ab0d19512)"><g clip-path="url(#a081007a49)"><g clip-path="url(#7d1c9ffb34)"><g clip-path="url(#46c1c69aa0)"><path fill="#3b3d17" d="M -8.417969 17.859375 L 75.015625 -17.5 L 83.960938 3.605469 L 0.527344 38.964844 Z M -8.417969 17.859375 " fill-opacity="1" fill-rule="nonzero"/></g></g></g></g></g></g></g></g><g clip-path="url(#2794ed6772)"><g clip-path="url(#0ddfba0d53)"><g clip-path="url(#b40405407a)"><g transform="matrix(1, 0, 0, 1, 738, 346)"><g clip-path="url(#48f138ed5f)"><g clip-path="url(#18b85af5d1)"><g clip-path="url(#346bb0a4ab)"><g clip-path="url(#d58808e174)"><path fill="#3b3d17" d="M -18.097656 41.847656 L 18.632812 -40.972656 L 117.304688 2.785156 L 80.578125 85.609375 Z M -18.097656 41.847656 " fill-opacity="1" fill-rule="nonzero"/></g></g></g></g></g></g></g></g><g clip-path="url(#804a8b5937)"><g clip-path="url(#4f2509d3aa)"><g clip-path="url(#2322118766)"><g transform="matrix(1, 0, 0, 1, 818, 348)"><g clip-path="url(#553f384333)"><g clip-path="url(#6668483ffb)"><g clip-path="url(#a603b70a07)"><g clip-path="url(#792a88b10d)"><path fill="#3b3d17" d="M 58.082031 9.847656 L 21.222656 92.632812 L 0.28125 83.308594 L 37.140625 0.523438 Z M 58.082031 9.847656 " fill-opacity="1" fill-rule="nonzero"/></g></g></g></g></g></g></g></g><g clip-path="url(#c3809f886b)"><g clip-path="url(#5fbf724d97)"><g clip-path="url(#303043e170)"><g transform="matrix(1, 0, 0, 1, 334, 442)"><g clip-path="url(#97551ba5c0)"><g clip-path="url(#6f571542e0)"><g clip-path="url(#a4776ea52d)"><g clip-path="url(#87e64cdac6)"><path fill="#3b3d17" d="M 135.332031 43.179688 L 99.242188 126.285156 L 0.234375 83.289062 L 36.320312 0.183594 Z M 135.332031 43.179688 " fill-opacity="1" fill-rule="nonzero"/></g></g></g></g></g></g></g></g><g clip-path="url(#129ee5716b)"><g clip-path="url(#6fd26b4023)"><g clip-path="url(#e020db23f2)"><g transform="matrix(1, 0, 0, 1, 331, 442)"><g clip-path="url(#0b02db6825)"><g clip-path="url(#c269c2570a)"><g clip-path="url(#f38a414a22)"><g clip-path="url(#cdcaf189b3)"><path fill="#3b3d17" d="M -17.613281 74.382812 L 18.605469 -8.679688 L 39.617188 0.480469 L 3.398438 83.546875 Z M -17.613281 74.382812 " fill-opacity="1" fill-rule="nonzero"/></g></g></g></g></g></g></g></g><g clip-path="url(#857401b782)"><g clip-path="url(#c161eda15b)"><g clip-path="url(#1a33f5a2c6)"><g transform="matrix(1, 0, 0, 1, 241, 532)"><g clip-path="url(#048658c2ba)"><g clip-path="url(#cf65ff546e)"><g clip-path="url(#13cd53188c)"><g clip-path="url(#2d146fa17a)"><path fill="#3b3d17" d="M 127.167969 99.359375 L 44.144531 135.625 L 0.9375 36.707031 L 83.960938 0.441406 Z M 127.167969 99.359375 " fill-opacity="1" fill-rule="nonzero"/></g></g></g></g></g></g></g></g><g clip-path="url(#b24f58ac15)"><g clip-path="url(#8a7e03e1a2)"><g clip-path="url(#ed185eee3f)"><g transform="matrix(1, 0, 0, 1, 241, 529)"><g clip-path="url(#8ed30609c2)"><g clip-path="url(#140ec357ca)"><g clip-path="url(#7aa8c5182e)"><g clip-path="url(#5d44a733d3)"><path fill="#3b3d17" d="M -8.261719 18.988281 L 74.832031 -17.160156 L 83.976562 3.859375 L 0.882812 40.007812 Z M -8.261719 18.988281 " fill-opacity="1" fill-rule="nonzero"/></g></g></g></g></g></g></g></g><g clip-path="url(#c730d83cd3)"><g clip-path="url(#688e4ada8f)"><g clip-path="url(#e2369581e8)"><g transform="matrix(1, 0, 0, 1, 335, 344)"><g clip-path="url(#02ef38a69e)"><g clip-path="url(#d785b05dce)"><g clip-path="url(#ffc23c5055)"><g clip-path="url(#d1fe6d79f6)"><path fill="#3b3d17" d="M 100.054688 -40.75 L 135.535156 42.617188 L 36.210938 84.886719 L 0.734375 1.519531 Z M 100.054688 -40.75 " fill-opacity="1" fill-rule="nonzero"/></g></g></g></g></g></g></g></g><g clip-path="url(#a688eccb0b)"><g clip-path="url(#8a21781a07)"><g clip-path="url(#aaf127a09a)"><g transform="matrix(1, 0, 0, 1, 332, 345)"><g clip-path="url(#40d21079f5)"><g clip-path="url(#76b9e368db)"><g clip-path="url(#c7c4a467ae)"><g clip-path="url(#f707954474)"><path fill="#3b3d17" d="M 18.40625 92.886719 L -16.953125 9.453125 L 4.152344 0.507812 L 39.511719 83.941406 Z M 18.40625 92.886719 " fill-opacity="1" fill-rule="nonzero"/></g></g></g></g></g></g></g></g><g clip-path="url(#fc2a2afd31)"><g clip-path="url(#a1da383d8b)"><g clip-path="url(#b18e370bcd)"><g transform="matrix(1, 0, 0, 1, 145, 535)"><g clip-path="url(#251dd2349e)"><g clip-path="url(#a6b323001c)"><g clip-path="url(#c3264eda62)"><g clip-path="url(#710f2e32e8)"><path fill="#3b3d17" d="M 42.390625 135.578125 L -40.429688 98.847656 L 3.328125 0.171875 L 86.152344 36.902344 Z M 42.390625 135.578125 " fill-opacity="1" fill-rule="nonzero"/></g></g></g></g></g></g></g></g><g clip-path="url(#1a9f985ffb)"><g clip-path="url(#1c2e51fa0d)"><g clip-path="url(#396b09d693)"><g transform="matrix(1, 0, 0, 1, 148, 532)"><g clip-path="url(#6cb6d8e9dc)"><g clip-path="url(#b5700d55ac)"><g clip-path="url(#a567ce38dc)"><g clip-path="url(#8e896653d1)"><path fill="#3b3d17" d="M 9.390625 -17.605469 L 92.175781 19.253906 L 82.851562 40.195312 L 0.0664062 3.335938 Z M 9.390625 -17.605469 " fill-opacity="1" fill-rule="nonzero"/></g></g></g></g></g></g></g></g><g clip-path="url(#a77549719d)"><g clip-path="url(#9210d2da98)"><g clip-path="url(#b46053e8ac)"><g transform="matrix(1, 0, 0, 1, 736, 1065)"><g clip-path="url(#0e58030ca2)"><g clip-path="url(#7b81011d4c)"><g clip-path="url(#18ba842eb7)"><g clip-path="url(#4d7eeafcdc)"><path fill="#3b3d17" d="M -17.4375 41.597656 L 18.648438 -41.507812 L 117.660156 1.488281 L 81.574219 84.59375 Z M -17.4375 41.597656 " fill-opacity="1" fill-rule="nonzero"/></g></g></g></g></g></g></g></g><g clip-path="url(#6266e34b2c)"><g clip-path="url(#a6d6d5874e)"><g clip-path="url(#d12a530ca7)"><g transform="matrix(1, 0, 0, 1, 817, 1066)"><g clip-path="url(#ef0f882956)"><g clip-path="url(#6bcae33681)"><g clip-path="url(#0a90587809)"><g clip-path="url(#5d045dbfb8)"><path fill="#3b3d17" d="M 57.507812 9.390625 L 21.289062 92.457031 L 0.277344 83.296875 L 36.496094 0.230469 Z M 57.507812 9.390625 " fill-opacity="1" fill-rule="nonzero"/></g></g></g></g></g></g></g></g><g clip-path="url(#66830b3c0b)"><g clip-path="url(#389f90468e)"><g clip-path="url(#7260f07ef9)"><g transform="matrix(1, 0, 0, 1, 861, 942)"><g clip-path="url(#fa6d03804b)"><g clip-path="url(#4aaa3baba3)"><g clip-path="url(#81a45cea56)"><g clip-path="url(#0b88dc8d9e)"><path fill="#3b3d17" d="M -41.28125 18.421875 L 41.746094 -17.84375 L 84.953125 81.074219 L 1.925781 117.339844 Z M -41.28125 18.421875 " fill-opacity="1" fill-rule="nonzero"/></g></g></g></g></g></g></g></g><g clip-path="url(#f33db5e2e6)"><g clip-path="url(#88905317bb)"><g clip-path="url(#e06a8880d7)"><g transform="matrix(1, 0, 0, 1, 862, 1022)"><g clip-path="url(#b89139d417)"><g clip-path="url(#1dccb6ed33)"><g clip-path="url(#0914efeaf9)"><g clip-path="url(#e9eb989d5b)"><path fill="#3b3d17" d="M 93.152344 21.789062 L 10.058594 57.941406 L 0.914062 36.917969 L 84.007812 0.769531 Z M 93.152344 21.789062 " fill-opacity="1" fill-rule="nonzero"/></g></g></g></g></g></g></g></g><g clip-path="url(#bf5bebc0d1)"><g clip-path="url(#b80f92ef23)"><g clip-path="url(#3a68483998)"><g transform="matrix(1, 0, 0, 1, 735, 1162)"><g clip-path="url(#fa6df337a8)"><g clip-path="url(#a620fc8157)"><g clip-path="url(#d7404837c7)"><g clip-path="url(#db6e4f1419)"><path fill="#3b3d17" d="M 17.832031 126.519531 L -17.644531 43.15625 L 81.675781 0.886719 L 117.15625 84.253906 Z M 17.832031 126.519531 " fill-opacity="1" fill-rule="nonzero"/></g></g></g></g></g></g></g></g><g clip-path="url(#cd28f30239)"><g clip-path="url(#b8b5951c2c)"><g clip-path="url(#167c0f0363)"><g transform="matrix(1, 0, 0, 1, 816, 1162)"><g clip-path="url(#2d9087ff6a)"><g clip-path="url(#12a1b65ab1)"><g clip-path="url(#32e192de1b)"><g clip-path="url(#9c267711ef)"><path fill="#3b3d17" d="M 21.480469 -8.113281 L 56.839844 75.320312 L 35.734375 84.265625 L 0.375 0.828125 Z M 21.480469 -8.113281 " fill-opacity="1" fill-rule="nonzero"/></g></g></g></g></g></g></g></g><g clip-path="url(#3327f74681)"><g clip-path="url(#713fdeb8a8)"><g clip-path="url(#fe29cd6e6a)"><g transform="matrix(1, 0, 0, 1, 956, 939)"><g clip-path="url(#6d09f7dbc1)"><g clip-path="url(#2c8c11bcce)"><g clip-path="url(#d4d54f0d1b)"><g clip-path="url(#15e67467f8)"><path fill="#3b3d17" d="M 44.5 -17.792969 L 127.320312 18.9375 L 83.5625 117.613281 L 0.742188 80.882812 Z M 44.5 -17.792969 " fill-opacity="1" fill-rule="nonzero"/></g></g></g></g></g></g></g></g><g clip-path="url(#4bdf47e612)"><g clip-path="url(#1215f42d52)"><g clip-path="url(#db09dc348e)"><g transform="matrix(1, 0, 0, 1, 957, 1019)"><g clip-path="url(#4c2e8e0357)"><g clip-path="url(#ba70a66e76)"><g clip-path="url(#4c7df42559)"><g clip-path="url(#159e1581de)"><path fill="#3b3d17" d="M 73.5 58.386719 L -9.285156 21.53125 L 0.0390625 0.589844 L 82.824219 37.445312 Z M 73.5 58.386719 " fill-opacity="1" fill-rule="nonzero"/></g></g></g></g></g></g></g></g><g clip-path="url(#02169aa9b0)"><g clip-path="url(#b91ed38723)"><g clip-path="url(#105291e142)"><g transform="matrix(1, 0, 0, 1, 241, 940)"><g clip-path="url(#c8ac21ab37)"><g clip-path="url(#331c64461e)"><g clip-path="url(#ff762d1838)"><g clip-path="url(#b7e480193f)"><path fill="#3b3d17" d="M 43.726562 -18.007812 L 126.832031 18.082031 L 83.835938 117.089844 L 0.734375 81.003906 Z M 43.726562 -18.007812 " fill-opacity="1" fill-rule="nonzero"/></g></g></g></g></g></g></g></g><g clip-path="url(#cba9d894c0)"><g clip-path="url(#f91d371827)"><g clip-path="url(#8b34b5d147)"><g transform="matrix(1, 0, 0, 1, 242, 1020)"><g clip-path="url(#d9c3ba4e1b)"><g clip-path="url(#d7b4357b96)"><g clip-path="url(#879cd52e5c)"><g clip-path="url(#a3bf060102)"><path fill="#3b3d17" d="M 73.933594 57.9375 L -9.132812 21.71875 L 0.03125 0.707031 L 83.09375 36.925781 Z M 73.933594 57.9375 " fill-opacity="1" fill-rule="nonzero"/></g></g></g></g></g></g></g></g><g clip-path="url(#5cc660bb7a)"><g clip-path="url(#1af1593106)"><g clip-path="url(#74c70dd8f1)"><g transform="matrix(1, 0, 0, 1, 331, 1064)"><g clip-path="url(#63a47fe31a)"><g clip-path="url(#57d704e3f5)"><g clip-path="url(#454f1c40da)"><g clip-path="url(#92191b8eac)"><path fill="#3b3d17" d="M 99.902344 -40.84375 L 136.167969 42.179688 L 37.25 85.386719 L 0.984375 2.363281 Z M 99.902344 -40.84375 " fill-opacity="1" fill-rule="nonzero"/></g></g></g></g></g></g></g></g><g clip-path="url(#4b7b706c2b)"><g clip-path="url(#ad3f6b7d5f)"><g clip-path="url(#e70c7598ff)"><g transform="matrix(1, 0, 0, 1, 329, 1066)"><g clip-path="url(#aa06fb0072)"><g clip-path="url(#e3c1f3273b)"><g clip-path="url(#0fb9342f87)"><g clip-path="url(#3a687c1327)"><path fill="#3b3d17" d="M 18.535156 92.585938 L -17.617188 9.492188 L 3.40625 0.347656 L 39.554688 83.441406 Z M 18.535156 92.585938 " fill-opacity="1" fill-rule="nonzero"/></g></g></g></g></g></g></g></g><g clip-path="url(#f1a4ca9299)"><g clip-path="url(#ef69ff57dd)"><g clip-path="url(#c9895355af)"><g transform="matrix(1, 0, 0, 1, 144, 938)"><g clip-path="url(#c560e7dc71)"><g clip-path="url(#513cd8fb8c)"><g clip-path="url(#a77851a438)"><g clip-path="url(#548489399e)"><path fill="#3b3d17" d="M -41.199219 18.265625 L 42.164062 -17.214844 L 84.433594 82.109375 L 1.066406 117.585938 Z M -41.199219 18.265625 " fill-opacity="1" fill-rule="nonzero"/></g></g></g></g></g></g></g></g><g clip-path="url(#ee45c14951)"><g clip-path="url(#2ce3f970e4)"><g clip-path="url(#821df4c6ac)"><g transform="matrix(1, 0, 0, 1, 145, 1019)"><g clip-path="url(#69224c25b6)"><g clip-path="url(#a0f6e603ca)"><g clip-path="url(#815ca77a67)"><g clip-path="url(#6987e88158)"><path fill="#3b3d17" d="M 92.433594 21.914062 L 9 57.273438 L 0.0546875 36.167969 L 83.492188 0.808594 Z M 92.433594 21.914062 " fill-opacity="1" fill-rule="nonzero"/></g></g></g></g></g></g></g></g><g clip-path="url(#a66531e5b4)"><g clip-path="url(#af62818855)"><g clip-path="url(#d063af8ceb)"><g transform="matrix(1, 0, 0, 1, 334, 1160)"><g clip-path="url(#6b73717372)"><g clip-path="url(#c5670d486c)"><g clip-path="url(#1cf05f4a7f)"><g clip-path="url(#0ee517ff90)"><path fill="#3b3d17" d="M 136.121094 43.9375 L 99.390625 126.757812 L 0.714844 83 L 37.445312 0.175781 Z M 136.121094 43.9375 " fill-opacity="1" fill-rule="nonzero"/></g></g></g></g></g></g></g></g><g clip-path="url(#4b922f0d68)"><g clip-path="url(#428d2a542a)"><g clip-path="url(#a0c6c55e69)"><g transform="matrix(1, 0, 0, 1, 332, 1160)"><g clip-path="url(#c8851fa780)"><g clip-path="url(#96db974b4d)"><g clip-path="url(#afe08d1473)"><g clip-path="url(#ce47fcf8c6)"><path fill="#3b3d17" d="M -18.0625 73.9375 L 18.796875 -8.847656 L 39.738281 0.476562 L 2.878906 83.261719 Z M -18.0625 73.9375 " fill-opacity="1" fill-rule="nonzero"/></g></g></g></g></g></g></g></g><g clip-path="url(#3a9c022c0b)"><g transform="matrix(1, 0, 0, 1, 0, 186)"><g clip-path="url(#77647d1d45)"><g clip-path="url(#14a90d15a7)"><path fill="#ffffff" d="M -212.917969 0.25 L 148.0625 0.25 L 148.0625 1187.542969 L -212.917969 1187.542969 Z M -212.917969 0.25 " fill-opacity="1" fill-rule="nonzero"/></g></g></g></g><g clip-path="url(#ed46a8ebf3)"><g transform="matrix(1, 0, 0, 1, 1040, 195)"><g clip-path="url(#4637e2d680)"><g clip-path="url(#a7db83b8db)"><path fill="#ffffff" d="M 0.320312 0.824219 L 362.4375 0.824219 L 362.4375 1187.609375 L 0.320312 1187.609375 Z M 0.320312 0.824219 " fill-opacity="1" fill-rule="nonzero"/></g></g></g></g><g clip-path="url(#9d0f5049c7)"><g transform="matrix(1, 0, 0, 1, 0, 1234)"><g clip-path="url(#e3d6945242)"><g clip-path="url(#b7fed13597)"><path fill="#ffffff" d="M -115.214844 0.28125 L 1222.695312 0.28125 L 1222.695312 217.746094 L -115.214844 217.746094 Z M -115.214844 0.28125 " fill-opacity="1" fill-rule="nonzero"/></g></g></g></g><g clip-path="url(#f779dcb493)"><g transform="matrix(1, 0, 0, 1, 0, 131)"><g clip-path="url(#fe6d0f9a6f)"><g clip-path="url(#5bc9d17569)"><path fill="#ffffff" d="M -32.425781 0.0546875 L 1305.480469 0.0546875 L 1305.480469 217.519531 L -32.425781 217.519531 Z M -32.425781 0.0546875 " fill-opacity="1" fill-rule="nonzero"/></g></g></g></g></g></g></g></svg>